<svg width="52" height="39" viewBox="0 0 52 39" fill="none" xmlns="http://www.w3.org/2000/svg">
<path d="M51.0649 8.6989C51.0649 4.21591 47.7674 0.609596 43.6929 0.609596C38.1738 0.351575 32.5452 0.251953 26.793 0.251953H24.9998C19.2616 0.251953 13.623 0.351575 8.10392 0.610592C4.03935 0.610592 0.741861 4.23683 0.741861 8.71982C0.492806 12.2654 0.387207 15.8119 0.393184 19.3584C0.383222 22.905 0.496127 26.4548 0.731899 30.008C0.731899 34.491 4.02938 38.1272 8.09396 38.1272C13.892 38.3962 19.8394 38.5157 25.8864 38.5058C31.9435 38.5257 37.8743 38.3995 43.6789 38.1272C47.7535 38.1272 51.0509 34.491 51.0509 30.008C51.29 26.4515 51.3996 22.905 51.3897 19.3485C51.4122 15.8019 51.304 12.2521 51.0649 8.6989ZM21.0149 29.1314V9.55565L35.4601 19.3385L21.0149 29.1314Z" fill="white"/>
</svg>
