<svg width="40" height="39" viewBox="0 0 40 39" fill="none" xmlns="http://www.w3.org/2000/svg">
<path d="M28.0521 3.23968C30.1985 3.24609 32.2552 4.10159 33.7729 5.61934C35.2907 7.13709 36.1462 9.19376 36.1526 11.3402V27.5394C36.1462 29.6858 35.2907 31.7425 33.7729 33.2602C32.2552 34.778 30.1985 35.6335 28.0521 35.6399H11.8529C9.70645 35.6335 7.64978 34.778 6.13203 33.2602C4.61428 31.7425 3.75878 29.6858 3.75237 27.5394V11.3402C3.75878 9.19376 4.61428 7.13709 6.13203 5.61934C7.64978 4.10159 9.70645 3.24609 11.8529 3.23968H28.0521ZM28.0521 0H11.8529C5.61564 0 0.512695 5.10294 0.512695 11.3402V27.5394C0.512695 33.7766 5.61564 38.8796 11.8529 38.8796H28.0521C34.2893 38.8796 39.3923 33.7766 39.3923 27.5394V11.3402C39.3923 5.10294 34.2893 0 28.0521 0Z" fill="white"/>
<path d="M30.4819 11.3404C30.0013 11.3404 29.5315 11.1979 29.1319 10.9309C28.7323 10.6639 28.4208 10.2844 28.2369 9.84035C28.053 9.39633 28.0049 8.90775 28.0986 8.43638C28.1924 7.96501 28.4238 7.53203 28.7637 7.19219C29.1035 6.85235 29.5365 6.62092 30.0079 6.52716C30.4792 6.4334 30.9678 6.48152 31.4118 6.66544C31.8558 6.84936 32.2354 7.16082 32.5024 7.56042C32.7694 7.96003 32.9119 8.42984 32.9119 8.91044C32.9126 9.22974 32.8502 9.54604 32.7283 9.84117C32.6064 10.1363 32.4275 10.4044 32.2017 10.6302C31.9759 10.856 31.7078 11.035 31.4126 11.1568C31.1175 11.2787 30.8012 11.3411 30.4819 11.3404ZM19.9523 12.9598C21.234 12.9598 22.4869 13.3399 23.5525 14.0519C24.6182 14.764 25.4488 15.7761 25.9393 16.9602C26.4297 18.1443 26.5581 19.4472 26.308 20.7043C26.058 21.9613 25.4408 23.116 24.5345 24.0222C23.6283 24.9285 22.4736 25.5457 21.2165 25.7957C19.9595 26.0458 18.6566 25.9175 17.4724 25.427C16.2883 24.9365 15.2763 24.1059 14.5642 23.0403C13.8522 21.9746 13.4721 20.7217 13.4721 19.44C13.4739 17.7219 14.1573 16.0747 15.3721 14.8599C16.587 13.645 18.2342 12.9617 19.9523 12.9598ZM19.9523 9.72015C18.0299 9.72015 16.1507 10.2902 14.5522 11.3582C12.9538 12.4263 11.708 13.9443 10.9723 15.7204C10.2366 17.4965 10.0441 19.4508 10.4192 21.3363C10.7942 23.2218 11.72 24.9537 13.0793 26.313C14.4387 27.6724 16.1706 28.5981 18.0561 28.9732C19.9415 29.3482 21.8959 29.1557 23.672 28.4201C25.448 27.6844 26.9661 26.4386 28.0341 24.8401C29.1022 23.2417 29.6722 21.3625 29.6722 19.44C29.6722 16.8622 28.6482 14.3899 26.8253 12.567C25.0025 10.7442 22.5302 9.72015 19.9523 9.72015Z" fill="white"/>
</svg>
