<svg width="34" height="39" viewBox="0 0 34 39" fill="none" xmlns="http://www.w3.org/2000/svg">
<path d="M29.2831 8.65071C29.0261 8.51789 28.7759 8.37229 28.5335 8.21446C27.8285 7.74842 27.1822 7.19929 26.6084 6.5789C25.1727 4.9362 24.6365 3.2697 24.439 2.10292H24.447C24.282 1.13443 24.3502 0.507812 24.3605 0.507812H17.8214V25.7932C17.8214 26.1326 17.8214 26.4682 17.8072 26.7997C17.8072 26.841 17.8032 26.879 17.8008 26.9234C17.8008 26.9417 17.8008 26.9607 17.7969 26.9798V26.994C17.7279 27.9013 17.4371 28.7777 16.95 29.5461C16.4628 30.3146 15.7943 30.9516 15.0032 31.401C14.1788 31.8701 13.2462 32.1161 12.2977 32.1149C9.25102 32.1149 6.78182 29.6306 6.78182 26.5625C6.78182 23.4945 9.25102 21.0102 12.2977 21.0102C12.8744 21.0097 13.4475 21.1004 13.9959 21.2791L14.0038 14.6211C12.3392 14.406 10.6481 14.5383 9.03715 15.0096C7.42622 15.4809 5.93044 16.2809 4.64417 17.3592C3.5171 18.3384 2.56956 19.5069 1.84421 20.8119C1.56818 21.2878 0.526716 23.2002 0.400599 26.304C0.32128 28.0656 0.850338 29.8908 1.10257 30.6451V30.661C1.26121 31.1052 1.87593 32.6209 2.87773 33.8988C3.68555 34.9238 4.63996 35.8242 5.71022 36.571V36.5552L5.72608 36.571C8.89171 38.7222 12.4016 38.581 12.4016 38.581C13.0092 38.5564 15.0445 38.581 17.3558 37.4856C19.9194 36.2712 21.3789 34.4619 21.3789 34.4619C22.3113 33.3809 23.0527 32.1489 23.5713 30.8188C24.163 29.2634 24.3605 27.3978 24.3605 26.6522V13.2377C24.4398 13.2853 25.4964 13.9841 25.4964 13.9841C25.4964 13.9841 27.0185 14.9598 29.3933 15.5951C31.0971 16.0472 33.3926 16.1424 33.3926 16.1424V9.65092C32.5883 9.73818 30.9551 9.48435 29.2831 8.65071Z" fill="white"/>
</svg>
