<svg width="39" height="40" viewBox="0 0 39 40" fill="none" xmlns="http://www.w3.org/2000/svg">
<path d="M38.8324 39.3257C38.7887 39.3257 38.7451 39.3236 38.7014 39.3236C34.9697 39.3236 31.2402 39.3236 27.5085 39.3236C27.4129 39.3236 27.3546 39.3008 27.2985 39.2155C25.0728 35.9706 22.843 32.7298 20.6152 29.4891C19.3921 27.7086 18.167 25.928 16.9439 24.1475C16.9252 24.1204 16.9044 24.0955 16.8773 24.058C16.7983 24.1496 16.7234 24.2328 16.6506 24.3181C12.7151 28.8921 8.78171 33.4662 4.84622 38.0382C4.49677 38.4438 4.1494 38.8494 3.79787 39.2508C3.76667 39.2862 3.71051 39.3174 3.66683 39.3174C2.58519 39.3216 1.50148 39.3195 0.419843 39.3195C0.403203 39.3195 0.388642 39.3195 0.349121 39.3153C5.36208 33.4891 10.3667 27.6753 15.3714 21.8594C15.1217 21.4954 14.8763 21.1376 14.6309 20.7799C13.3516 18.9203 12.0745 17.0586 10.7952 15.199C9.34333 13.0857 7.88936 10.9723 6.43747 8.859C4.89614 6.61669 3.35482 4.3723 1.81349 2.12999C1.32467 1.42068 0.837937 0.709302 0.349121 0C4.1702 0 7.99128 0 11.8144 0C11.8332 0.031201 11.8519 0.062402 11.8727 0.093603C13.1353 1.93238 14.4 3.77116 15.6626 5.60786C17.5429 8.34314 19.4233 11.0784 21.3016 13.8137C21.4472 14.0259 21.5928 14.236 21.7426 14.4544C21.8071 14.3816 21.8632 14.315 21.9215 14.2505C24.9085 10.7789 27.8975 7.30519 30.8845 3.83356C31.9828 2.5564 33.0831 1.27716 34.1814 0C35.3109 0 36.4403 0 37.5677 0C37.3077 0.30577 37.0498 0.611539 36.7898 0.915229C33.8049 4.38478 30.8179 7.85641 27.833 11.326C26.3291 13.0753 24.8232 14.8246 23.3172 16.5719C23.2694 16.628 23.2569 16.6634 23.3026 16.732C23.8684 17.5495 24.4321 18.3711 24.9958 19.1907C27.1757 22.3649 29.3577 25.537 31.5376 28.7111C33.8111 32.0185 36.0846 35.3278 38.3582 38.6351C38.5121 38.8598 38.6723 39.0824 38.8303 39.3049V39.3257H38.8324ZM34.1793 36.8816C34.1502 36.8359 34.1356 36.8109 34.1169 36.786C31.9412 33.6742 29.7654 30.5624 27.5897 27.4506C24.9709 23.7065 22.3521 19.9624 19.7353 16.2183C16.5716 11.6941 13.4078 7.16999 10.2461 2.64376C10.2003 2.57928 10.1566 2.55224 10.0755 2.55224C8.41562 2.55432 6.75572 2.55224 5.09583 2.55224C5.06047 2.55224 5.02511 2.55224 4.97103 2.55224C5.00639 2.60424 5.02719 2.63752 5.05007 2.66872C5.52016 3.34267 5.99234 4.01453 6.46243 4.68847C9.14156 8.51995 11.8207 12.3514 14.4998 16.185C17.0853 19.8833 19.6709 23.5796 22.2564 27.278C24.4737 30.4501 26.6932 33.6222 28.9105 36.7943C28.9542 36.8567 28.9958 36.8816 29.0727 36.8816C30.7368 36.8796 32.4009 36.8816 34.0628 36.8816H34.1793Z" fill="white"/>
</svg>
