<svg width="24" height="18" viewBox="0 0 24 18" fill="none" xmlns="http://www.w3.org/2000/svg">
<path d="M0.00192 15.6021C0.1056 15.2987 0.24384 15.0203 0.51456 14.8245C0.779519 14.6344 1.07712 14.5903 1.39392 14.5903C4.11456 14.5922 6.83519 14.5903 9.55391 14.5903C13.6493 14.5903 17.7446 14.5922 21.84 14.5864C22.3373 14.5864 22.7481 14.7304 23.0246 15.1586C23.52 15.9304 23.0189 16.9499 22.1011 17.0421C21.9878 17.0536 21.8745 17.0498 21.7613 17.0498C15.0355 17.0498 8.31167 17.044 1.58592 17.0594C0.806399 17.0594 0.25152 16.8251 0 16.0514V15.5983L0.00192 15.6021Z" fill="#1756C3"/>
<path d="M11.6162 0C14.7976 0 17.9791 0 21.1605 0C21.6827 0 22.0418 0.24576 22.1551 0.685439C22.1839 0.800639 22.1877 0.925439 22.1877 1.04448C22.1877 5.07264 22.1877 9.10079 22.1877 13.1289C22.1877 13.8163 21.8306 14.1773 21.1394 14.1773C14.7842 14.1773 8.429 14.1773 2.07189 14.1773C1.39413 14.1773 1.03125 13.8144 1.03125 13.1424C1.03125 9.10655 1.03125 5.07072 1.03125 1.03488C1.03509 0.36288 1.39989 0 2.07189 0C5.25333 0 8.43476 0 11.6162 0ZM20.3311 1.968H2.89365V12.3206H20.3311V1.968ZM11.14 0.994559C11.1362 1.25568 11.3455 1.47072 11.6066 1.47456C11.8677 1.4784 12.0808 1.26912 12.0847 1.008C12.0885 0.746879 11.8812 0.53376 11.6181 0.52992C11.3551 0.52608 11.1439 0.733439 11.14 0.994559Z" fill="#1756C3"/>
</svg>
