<svg width="166" height="65" viewBox="0 0 166 65" fill="none" xmlns="http://www.w3.org/2000/svg">
<path d="M15.262 65C22.6981 65 29.5518 62.4549 35.008 58.1949C40.4641 62.4549 47.3089 65 54.754 65C62.1991 65 69.0439 62.4549 74.5 58.1949C79.9561 62.4549 86.8009 65 94.246 65C101.691 65 108.536 62.4549 113.992 58.1949C119.448 62.4549 126.293 65 133.738 65C151.558 65 166 50.4513 166 32.5C166 14.5487 151.558 1.39962e-05 133.738 1.24384e-05C126.293 1.17875e-05 119.448 2.54513 113.992 6.80506C108.536 2.54513 101.691 9.63673e-06 94.246 8.98586e-06C86.8009 8.33499e-06 79.9561 2.54513 74.5 6.80505C69.0439 2.54513 62.1991 6.18422e-06 54.754 5.53335e-06C47.3089 4.88249e-06 40.4641 2.54512 35.008 6.80505C29.5519 2.54512 22.7071 2.73172e-06 15.262 2.08085e-06C-2.55781 5.22997e-07 -17 14.5487 -17 32.5C-17 50.4513 -2.55782 65 15.262 65Z" fill="url(#paint0_linear_2834_7553)"/>
<defs>
<linearGradient id="paint0_linear_2834_7553" x1="171.751" y1="33.0702" x2="-22.9144" y2="33.0702" gradientUnits="userSpaceOnUse">
<stop offset="0.005" stop-color="#43D2FF"/>
<stop offset="0.415" stop-color="#43D2FF"/>
<stop offset="0.895" stop-color="#0057FF"/>
</linearGradient>
</defs>
</svg>
