<svg width="264" height="45" viewBox="0 0 264 45" fill="none" xmlns="http://www.w3.org/2000/svg">
<path d="M8.33053 26.0102C6.93212 26.7334 5.13816 26.8972 4.53884 26.8972C1.44236 26.8972 0 24.5039 0 22.4422C0 20.3806 1.48631 17.6597 4.9304 17.6597C6.44468 17.6597 7.44354 18.1391 7.7472 18.1391C7.87505 18.1391 7.99092 18.1112 8.07083 18.0432H8.2706V20.3326H7.98692C7.60336 18.5666 6.40472 18.0113 5.09022 18.0113C2.60104 18.0113 1.32649 20.0729 1.32649 22.3543C1.32649 25.251 3.36018 26.5376 4.98633 26.5376C5.63759 26.5376 6.36077 26.3977 7.15187 25.9982V24.2162C7.15187 23.4091 6.8682 23.1374 6.02116 23.1374H5.49775V22.8857H9.31342V23.1374C8.60622 23.1814 8.32254 23.4211 8.32254 24.0244V26.0062L8.33053 26.0102Z" fill="#919FB5"/>
<path d="M15.5104 26.8972C12.7376 26.8972 10.4082 25.1152 10.4082 22.4702C10.4082 19.6534 12.5737 17.6597 15.5823 17.6597C18.2513 17.6597 20.5447 19.4856 20.5447 22.0347C20.5447 24.8875 18.2553 26.8972 15.5104 26.8972ZM15.2147 18.0153C12.7256 18.0153 11.7387 20.3366 11.7387 22.0347C11.7387 24.6797 13.5327 26.5496 15.8101 26.5496C18.0875 26.5496 19.2182 24.5119 19.2182 22.5062C19.2182 19.8771 17.5481 18.0233 15.2187 18.0233L15.2147 18.0153Z" fill="#919FB5"/>
<path d="M23.002 19.3742C23.002 18.5671 22.9061 18.1476 21.9152 18.1476H21.4198V17.8799C21.8193 17.8639 22.7942 17.808 23.2017 17.792C23.9769 17.764 25.0556 17.748 25.3233 17.748C26.5659 17.748 27.6527 17.9318 28.1641 18.2994C28.7474 18.707 29.0271 19.1864 29.0271 19.8656C29.0271 20.6727 28.3639 21.4239 27.4169 21.5877V21.6157C28.7474 22.0152 29.5226 22.8742 29.5226 23.981C29.5226 25.0877 28.7474 26.6699 26.47 26.6699H21.2959V26.4022H21.6195C22.7782 26.4022 23.002 26.1345 23.002 25.2435V19.3742ZM24.1726 21.5517H25.7109C27.0693 21.5517 27.7446 21.0123 27.7446 19.9096C27.7446 18.9187 27.1532 18.0117 25.4152 18.0117C25.1036 18.0117 24.5282 18.0397 24.1726 18.0557V21.5517ZM24.1726 24.832C24.1726 25.9108 24.5961 26.2903 25.7828 26.2903C27.6527 26.2903 28.1841 25.1317 28.1841 24.0289C28.1841 22.9262 27.349 21.8194 25.6949 21.8194H24.1646V24.832H24.1686H24.1726Z" fill="#919FB5"/>
<path d="M34.3375 26.6735H30.9014V26.4058C31.7804 26.3618 31.9602 26.1381 31.9602 25.1872V19.162C31.9602 18.3989 31.6925 18.1871 30.9014 18.1432V17.8755H34.3375V18.1432C33.4505 18.1432 33.1388 18.343 33.1388 19.2899V25.2831C33.1388 26.1181 33.3666 26.4018 34.3375 26.4018V26.6695V26.6735Z" fill="#919FB5"/>
<path d="M41.5372 23.4891H41.2695C41.1576 22.4862 40.8859 22.3744 40.3066 22.3744H37.9173V25.387C37.9173 26.0382 38.161 26.1621 38.6804 26.1621H40.854C41.8448 26.1621 42.1405 25.7785 42.4961 24.5639H42.7478L42.5201 26.6695H35.0166V26.4018H35.4161C36.5469 26.4018 36.7466 26.0902 36.7466 25.2431V19.2739C36.7466 18.4828 36.5628 18.1432 35.6159 18.1432H35.3043V17.8755H42.0886L42.2004 19.8413H41.9487C41.7649 18.6386 41.4093 18.3829 40.9059 18.3829H37.9213V21.863H40.4504C40.9618 21.863 41.1976 21.6192 41.2695 20.8002H41.5372V23.4891Z" fill="#919FB5"/>
<path d="M46.1877 25.343C46.1877 26.194 46.5273 26.4058 47.3184 26.4058H47.642V26.6735H43.6426V26.4058H43.8863C44.7213 26.4058 45.017 26.1781 45.017 25.2311V19.2739C45.017 18.3949 44.7733 18.1432 43.9582 18.1432H43.6466V17.8755C43.9862 17.8755 44.8452 17.8156 45.4285 17.7876C46.0079 17.7596 46.2916 17.7437 47.2105 17.7437C49.8276 17.7437 51.0022 18.8224 51.0022 20.2608C51.0022 21.3236 50.279 22.2106 49.1243 22.5502C49.6478 22.9577 50.0713 23.3573 50.7345 24.0205L51.8493 25.1392C52.6843 25.9743 53.5433 26.4977 54.6341 26.5656V26.8173C52.1569 26.9292 51.5216 26.3938 50.2631 25.1353L49.3321 24.2043C48.7088 23.581 48.2134 23.1695 47.8738 22.9457C47.5182 22.9617 47.2904 22.9737 46.9109 22.9737C46.5992 22.9737 46.4154 22.9577 46.1877 22.9457V25.339H46.1997L46.1877 25.343ZM46.1877 22.682C46.5273 22.726 46.7391 22.71 47.0667 22.71C48.6369 22.71 49.6677 22.0468 49.6677 20.3527C49.6677 19.0382 49.0764 18.0193 46.8949 18.0193C46.6272 18.0193 46.4434 18.0193 46.1917 18.0473V22.686L46.1877 22.682Z" fill="#919FB5"/>
<path d="M64.3104 26.7698L56.9867 19.1065V25.1756C56.9867 26.1944 57.2144 26.4102 58.4131 26.4102V26.6779H55.1328V26.4102H55.1927C56.0717 26.4102 56.3514 26.1145 56.3514 25.4633V18.5032C56.0278 18.2754 55.6562 18.1636 55.1608 18.1476V17.8799H57.3783L64.0387 24.824V19.1944C64.0387 18.3314 63.787 18.1755 62.6563 18.1476V17.8799H65.9605V18.1476C64.9017 18.1476 64.674 18.3314 64.674 18.8867V26.7778H64.3064L64.3104 26.7698Z" fill="#919FB5"/>
<path d="M72.0583 26.8972C69.2854 26.8972 66.9561 25.1152 66.9561 22.4702C66.9561 19.6534 69.1216 17.6597 72.1302 17.6597C74.7991 17.6597 77.0925 19.4856 77.0925 22.0347C77.0925 24.8875 74.8031 26.8972 72.0583 26.8972ZM71.7626 18.0153C69.2734 18.0153 68.2865 20.3366 68.2865 22.0347C68.2865 24.6797 70.0805 26.5496 72.3579 26.5496C74.6353 26.5496 75.766 24.5119 75.766 22.5062C75.766 19.8771 74.0959 18.0233 71.7666 18.0233L71.7626 18.0153Z" fill="#919FB5"/>
<path d="M83.3371 19.286C83.3371 18.363 83.0934 18.1393 82.2584 18.1393H81.9747V17.8716C82.4981 17.8436 83.1893 17.8117 83.9684 17.7837C84.7436 17.7557 85.6106 17.7397 86.3417 17.7397C90.0735 17.7397 91.7276 19.6376 91.7276 21.9669C91.7276 24.1045 90.0735 26.6616 86.4936 26.6616H81.9707V26.3939H82.2144C82.9776 26.3939 83.3292 26.1822 83.3292 25.3591V19.278H83.3411L83.3371 19.286ZM84.5118 25.6228C84.5118 26.2061 84.5558 26.3979 85.6705 26.3979C87.5643 26.3979 88.3554 26.1302 89.2344 25.2512C89.7579 24.7398 90.4091 23.653 90.4091 22.1987C90.4091 21.1519 90.1134 19.9892 89.2784 19.1541C88.6271 18.5029 87.6243 18.0074 85.6425 18.0074C85.0592 18.0074 84.6796 18.0514 84.5118 18.0594V25.6228Z" fill="#919FB5"/>
<path d="M99.0754 23.4891H98.8077C98.6958 22.4862 98.4241 22.3744 97.8448 22.3744H95.4555V25.387C95.4555 26.0382 95.6992 26.1621 96.2186 26.1621H98.3921C99.383 26.1621 99.6787 25.7785 100.034 24.5639H100.286L100.058 26.6695H92.5508V26.4018H92.9503C94.081 26.4018 94.2808 26.0902 94.2808 25.2431V19.2739C94.2808 18.4828 94.097 18.1432 93.1501 18.1432H92.8385V17.8755H99.6267L99.7386 19.8413H99.4869C99.3031 18.6386 98.9475 18.3829 98.4441 18.3829H95.4595V21.863H97.9886C98.5 21.863 98.7358 21.6192 98.8077 20.8002H99.0754V23.4891Z" fill="#919FB5"/>
<path d="M134.583 0L135.202 1.25058L136.585 1.45435L135.582 2.42924L135.817 3.80767L134.579 3.15641L133.344 3.80767L133.58 2.42924L132.577 1.45435L133.96 1.25058L134.575 0L134.583 0Z" fill="#919FB5"/>
<path d="M143.657 2.32178L144.28 3.57635L145.659 3.77213L144.656 4.74702L144.892 6.12146L143.653 5.4742L142.426 6.12146L142.654 4.74702L141.659 3.77213L143.042 3.57635L143.657 2.32178Z" fill="#919FB5"/>
<path d="M150.625 7.95508L151.24 9.20566L152.622 9.40943L151.628 10.3803L151.855 11.7588L150.629 11.1075L149.39 11.7588L149.626 10.3803L148.623 9.40943L150.001 9.20566L150.625 7.95508Z" fill="#919FB5"/>
<path d="M154.6 16.0303L155.22 17.2809L156.598 17.4846L155.595 18.4555L155.831 19.83L154.596 19.1827L153.362 19.83L153.598 18.4555L152.595 17.4846L153.973 17.2809L154.592 16.0303H154.6Z" fill="#919FB5"/>
<path d="M154.748 25.395L155.371 26.6456L156.749 26.8494L155.747 27.8203L155.982 29.1947L154.744 28.5474L153.517 29.1947L153.745 27.8203L152.75 26.8494L154.132 26.6456L154.748 25.395Z" fill="#919FB5"/>
<path d="M150.632 33.502L151.248 34.7525L152.638 34.9523L151.635 35.9312L151.871 37.2976L150.632 36.6464L149.394 37.2976L149.63 35.9312L148.635 34.9523L150.017 34.7525L150.632 33.502Z" fill="#919FB5"/>
<path d="M143.709 39.1396L144.328 40.3902L145.702 40.594L144.707 41.5649L144.943 42.9433L143.713 42.2921L142.474 42.9433L142.718 41.5649L141.715 40.594L143.093 40.3902L143.713 39.1396H143.709Z" fill="#919FB5"/>
<path d="M134.575 41.1172L135.198 42.3718L136.577 42.5715L135.574 43.5464L135.809 44.9249L134.571 44.2736L133.344 44.9249L133.572 43.5464L132.577 42.5715L133.96 42.3718L134.575 41.1172Z" fill="#919FB5"/>
<path d="M125.653 39.1475L126.272 40.402L127.651 40.6018L126.656 41.5767L126.892 42.9431L125.653 42.3039L124.415 42.9431L124.65 41.5767L123.647 40.6018L125.038 40.402L125.653 39.1475Z" fill="#919FB5"/>
<path d="M118.725 33.5063L119.341 34.7609L120.723 34.9607L119.72 35.9356L119.964 37.314L118.725 36.6628L117.495 37.314L117.726 35.9356L116.724 34.9607L118.106 34.7609L118.725 33.5063Z" fill="#919FB5"/>
<path d="M114.598 25.4551L115.217 26.6977L116.599 26.9014L115.596 27.8763L115.832 29.2548L114.594 28.6035L113.359 29.2548L113.595 27.8763L112.592 26.9014L113.974 26.6977L114.59 25.4551H114.598Z" fill="#919FB5"/>
<path d="M114.598 16.0303L115.217 17.2809L116.599 17.4846L115.596 18.4555L115.832 19.83L114.594 19.1827L113.359 19.83L113.595 18.4555L112.592 17.4846L113.974 17.2809L114.59 16.0303H114.598Z" fill="#919FB5"/>
<path d="M118.517 7.9668L119.137 9.22137L120.515 9.41715L119.52 10.396L119.756 11.7705L118.517 11.1192L117.283 11.7705L117.515 10.396L116.512 9.41715L117.894 9.22137L118.513 7.9668H118.517Z" fill="#919FB5"/>
<path d="M125.637 2.32178L126.261 3.57635L127.639 3.77612L126.636 4.75102L126.872 6.12945L125.633 5.47819L124.407 6.12945L124.643 4.75102L123.64 3.77612L125.018 3.57635L125.633 2.32178H125.637Z" fill="#919FB5"/>
<path d="M145.171 25.7066C145.079 25.7066 144.999 25.7785 144.999 25.8664C144.999 25.9703 145.079 26.0423 145.171 26.0423H145.215C145.307 26.0423 145.383 25.9623 145.383 25.8704C145.383 25.7785 145.307 25.7026 145.215 25.7026H145.171V25.7066Z" fill="#919FB5"/>
<path d="M147.073 23.3095C146.922 23.3295 146.782 23.3855 146.654 23.4654C146.586 23.5133 146.502 23.5453 146.418 23.5613C146.466 23.4574 146.486 23.3455 146.482 23.2336V22.4106C146.482 22.4106 146.378 22.7222 146.23 22.7941C146.078 22.866 145.791 22.9779 145.739 23.0778C145.691 23.1817 145.475 23.1817 145.395 23.4933C145.375 23.6292 145.331 23.761 145.271 23.8849L145.2 23.9888C145.303 23.5293 145.359 23.0618 145.371 22.5904V22.3746C145.435 22.3227 145.495 22.2627 145.555 22.2028C145.619 22.0989 146.422 21.8272 146.534 21.6115C146.646 21.3957 146.702 21.2559 146.762 21.164C146.838 20.9802 146.882 20.7804 146.886 20.5806C146.874 20.3129 146.85 20.0492 146.794 19.7816C146.67 19.8455 146.558 19.9254 146.466 20.0333C146.438 20.0692 146.41 20.0972 146.374 20.1252C146.39 20.0492 146.39 19.9733 146.374 19.8974C146.262 19.6217 146.09 19.2581 146.09 19.2581C146.09 19.2581 145.947 19.4899 145.859 19.6337C145.723 19.8974 145.595 19.9174 145.575 20.0253C145.555 20.1332 145.391 20.2091 145.339 20.4248C145.323 20.4768 145.307 20.5367 145.295 20.5926C145.231 20.1292 145.156 19.7096 145.068 19.3341C145.068 19.2142 145.152 18.9505 145.255 18.8666C145.395 18.7268 145.459 18.539 145.439 18.3432C145.435 18.1754 145.407 18.0156 145.363 17.8517C145.363 17.7279 144.944 17.1525 144.98 17.0287L144.704 17.636C144.508 17.4402 144.289 17.2764 144.049 17.1406L143.745 16.6251V16.3614C143.789 16.1856 143.789 15.9939 143.745 15.8181C143.697 15.6942 143.589 15.5863 143.537 15.4265C143.509 15.2827 143.434 15.1468 143.326 15.0429L143.018 14.7313C143.018 14.7313 142.966 14.963 142.922 15.1508C142.878 15.1308 142.834 15.1069 142.786 15.0989C142.726 15.0789 142.666 15.0509 142.618 15.011C142.527 14.8911 142.435 14.7752 142.355 14.6754C142.403 14.6434 142.435 14.5954 142.439 14.5355C142.439 14.4396 142.359 14.3637 142.267 14.3637C142.175 14.3637 142.099 14.4396 142.099 14.5315C142.099 14.6274 142.175 14.7033 142.267 14.7033C142.299 14.7073 142.327 14.7073 142.359 14.7033C142.359 14.7353 142.451 14.8432 142.551 15.003C142.467 14.955 142.383 14.9111 142.347 14.8831C142.311 14.8552 142.243 15.3506 142.395 15.6383H142.327C142.131 15.5903 141.927 15.5663 141.723 15.5863C141.799 15.5863 141.987 15.7901 142.007 15.894C142.071 16.0498 142.179 16.1896 142.319 16.2855C142.459 16.3614 142.586 16.4573 142.702 16.5692C142.906 16.6731 143.134 16.713 143.358 16.6931C143.43 16.737 143.509 16.757 143.589 16.745C143.681 16.9128 143.777 17.0806 143.873 17.2524C143.829 17.3963 143.809 17.5481 143.809 17.6999L143.246 17.5761C143.274 17.8078 143.35 18.0275 143.473 18.2273C143.445 18.2473 143.43 18.2793 143.426 18.3152C143.41 18.3672 143.41 18.4231 143.426 18.475C143.489 18.5669 143.577 18.6349 143.677 18.6788L141.576 20.1771C141.679 18.3472 141.604 16.5053 141.368 14.6833C141.628 14.5875 141.556 14.4676 141.556 14.4676L141.46 14.2159C141.46 14.2159 141.512 14.2199 141.536 14.2159C141.584 14.2159 141.628 14.1959 141.66 14.1639C141.731 14.088 141.731 13.9761 141.66 13.9042C141.608 13.8603 141.552 13.8163 141.492 13.7844L141.799 13.7404L141.971 13.0092L141.272 13.253V13.5606C141.22 13.5087 141.16 13.4567 141.088 13.4248C141.012 13.3489 140.892 13.3489 140.824 13.4248C140.753 13.5007 140.753 13.6126 140.824 13.6885C140.9 13.7524 140.992 13.8003 141.088 13.8243L137.512 17.7599L135.143 13.7964C135.187 12.9573 135.067 12.1223 134.791 11.3312C134.823 11.2033 134.835 11.0675 134.835 10.9316C134.943 10.8996 135.031 10.8117 135.063 10.7039C135.063 10.7039 134.891 10.4921 134.783 10.3962H134.919C135.023 10.3962 135.115 10.3243 135.123 10.2244C135.119 10.1205 135.031 10.0486 134.931 10.0526C134.867 10.0406 134.795 10.0406 134.727 10.0526L134.919 9.81688L134.548 9.16162L134.18 9.82487L134.376 10.0566C134.312 10.0446 134.248 10.0446 134.18 10.0566C134.12 10.0566 134.068 10.0766 134.024 10.1205C133.964 10.1805 133.96 10.2764 134.02 10.3363H134.024C134.068 10.3842 134.12 10.4082 134.18 10.4082H134.284C134.212 10.4721 134.156 10.544 134.096 10.62C134.076 10.6359 134.052 10.6519 134.044 10.6719C134.064 10.7238 134.104 10.7678 134.148 10.8078C133.557 11.8705 133.361 13.1131 133.593 14.3038L131.543 17.7279L127.959 13.7764C128.067 13.7604 128.163 13.7125 128.239 13.6365C128.283 13.6006 128.307 13.5446 128.315 13.4927C128.315 13.4487 128.299 13.4048 128.271 13.3728C128.239 13.3409 128.203 13.3249 128.159 13.3249C128.103 13.3249 128.047 13.3449 128.003 13.3768C127.955 13.4208 127.911 13.4727 127.879 13.5327V13.225L127.18 12.9813L127.352 13.7124L127.659 13.7564C127.6 13.7884 127.54 13.8283 127.492 13.8763C127.448 13.9122 127.428 13.9682 127.42 14.0201C127.42 14.0641 127.436 14.1 127.464 14.132C127.492 14.1639 127.536 14.1839 127.576 14.1839C127.603 14.1879 127.631 14.1879 127.663 14.1839L127.568 14.4356C127.568 14.4356 127.496 14.5555 127.755 14.6514C127.512 16.4733 127.444 18.3072 127.544 20.1451L125.41 18.6468C125.514 18.6109 125.598 18.535 125.654 18.4431C125.682 18.4111 125.698 18.3672 125.702 18.3232C125.702 18.2873 125.682 18.2473 125.654 18.2193C125.778 18.0196 125.857 17.7998 125.885 17.5681L125.318 17.6919C125.318 17.5401 125.298 17.3923 125.254 17.2444C125.346 17.0766 125.442 16.9088 125.538 16.737C125.618 16.741 125.694 16.725 125.766 16.6851C125.993 16.705 126.221 16.6651 126.421 16.5612C126.541 16.4493 126.669 16.3495 126.812 16.2775C126.94 16.1697 127.04 16.0338 127.096 15.878C127.096 15.7741 127.3 15.5703 127.376 15.5703C127.176 15.5544 126.976 15.5703 126.784 15.6223H126.709C126.868 15.3386 126.828 14.8232 126.76 14.8671L126.557 14.987L126.744 14.6873C126.776 14.6913 126.804 14.6913 126.836 14.6873C126.928 14.6594 126.976 14.5675 126.956 14.4836C126.936 14.3957 126.836 14.3437 126.752 14.3637C126.665 14.3837 126.613 14.4836 126.633 14.5675C126.649 14.6194 126.693 14.6714 126.752 14.6873C126.665 14.7832 126.585 14.9031 126.493 15.023C126.437 15.0549 126.385 15.0829 126.325 15.1109C126.281 15.1268 126.233 15.1428 126.189 15.1628C126.141 14.975 126.093 14.7433 126.093 14.7433L125.782 15.0549C125.678 15.1628 125.606 15.2907 125.574 15.4385C125.514 15.5743 125.446 15.7062 125.362 15.83C125.318 16.0058 125.318 16.1976 125.362 16.3734V16.6371L125.062 17.1525C124.827 17.2924 124.603 17.4602 124.407 17.648C124.335 17.4802 124.143 17.0407 124.143 17.0407C124.143 17.1965 123.776 17.7399 123.752 17.8637C123.708 18.0236 123.688 18.1874 123.684 18.3552C123.656 18.551 123.72 18.7427 123.856 18.8786C123.968 18.9665 124.012 19.2302 124.044 19.346C123.956 19.7216 123.884 20.1451 123.828 20.6046C123.816 20.5447 123.8 20.4927 123.784 20.4368C123.72 20.2211 123.556 20.1531 123.548 20.0373C123.54 19.9214 123.388 19.9134 123.252 19.6457C123.165 19.5019 123.021 19.2701 123.021 19.2701C123.021 19.2701 122.853 19.6417 122.741 19.9094C122.713 19.9813 122.697 20.0532 122.697 20.1371C122.665 20.1092 122.633 20.0772 122.605 20.0453C122.513 19.9414 122.405 19.8575 122.282 19.7935C122.226 20.0572 122.194 20.3209 122.19 20.5926C122.194 20.7924 122.238 20.9922 122.314 21.176C122.361 21.2679 122.425 21.4117 122.541 21.6235C122.653 21.8352 123.452 22.1149 123.52 22.2148C123.572 22.2787 123.632 22.3347 123.692 22.3866V22.6023C123.704 23.0698 123.756 23.5413 123.86 24.0008V23.9049C123.8 23.781 123.756 23.6532 123.736 23.5133C123.648 23.2057 123.44 23.2057 123.392 23.0978C123.344 22.9899 123.057 22.886 122.897 22.8141C122.737 22.7382 122.645 22.4305 122.645 22.4305V23.2536C122.641 23.3655 122.661 23.4813 122.709 23.5812C122.621 23.5653 122.537 23.5333 122.465 23.4853C122.341 23.4054 122.202 23.3575 122.05 23.3295C122.082 23.6052 122.134 23.8729 122.206 24.1446C122.27 24.3444 122.377 24.5322 122.517 24.688C122.585 24.7639 122.689 24.8917 122.873 25.0715C123.24 25.2593 123.632 25.3952 124.04 25.4711C124.191 25.515 124.319 25.6109 124.407 25.7468C124.407 25.8107 124.439 25.8706 124.455 25.9146C124.507 26.1423 124.591 26.41 124.683 26.7137C124.495 26.5299 124.247 26.43 123.984 26.43C123.8 26.43 123.101 26.2182 123.101 26.2182C123.288 26.446 123.42 26.7097 123.476 26.9934C123.208 26.9454 122.925 26.9454 122.657 26.9934C122.941 27.2051 123.181 27.4728 123.356 27.7725C123.464 28.0522 123.616 28.3119 123.8 28.5476C123.888 28.5955 124.111 28.8832 124.267 29.039C124.423 29.1949 125.042 29.1149 125.25 29.1149C125.41 29.1469 125.574 29.1949 125.726 29.2588C125.917 29.5105 126.141 29.7502 126.381 29.958C126.165 29.8701 125.973 29.7462 125.806 29.5864C125.71 29.4466 125.806 30.0379 125.941 30.2377C125.782 30.2377 125.622 30.1897 125.49 30.1018C125.322 29.966 125.49 30.5773 125.658 30.7411C126.057 31.0967 126.025 31.1566 126.085 31.1846C125.778 31.2885 125.454 31.3204 125.134 31.2805C124.947 31.1766 125.342 31.5402 125.582 31.6321C125.818 31.724 125.885 31.9837 126.281 32.0996C126.609 32.2434 126.964 32.3273 127.324 32.3353C127.508 32.2754 127.699 32.2274 127.891 32.1954C128.231 32.0436 128.582 31.9158 128.942 31.8119C129.35 32.0636 129.777 32.3033 130.209 32.5111H130.272H130.129C129.821 32.603 129.497 32.6349 129.174 32.615C129.03 32.5391 129.334 32.9586 129.525 33.1224C129.242 33.1823 128.942 33.2023 128.654 33.1863C128.443 33.1424 129.074 33.7457 129.318 33.8176C129.166 33.8775 129.006 33.9095 128.842 33.9215C128.626 33.9215 129.541 34.4968 129.773 34.4609C130.564 34.349 131.311 34.6167 131.675 34.4609C132.034 34.305 132.198 34.2451 132.374 34.1972C132.554 34.1492 132.634 33.9854 132.73 33.9135C132.834 33.7856 132.961 33.6818 133.105 33.6058H133.153C133.429 33.6218 133.709 33.6218 133.988 33.6058C133.864 33.6538 133.745 33.7257 133.645 33.8096C133.241 33.9335 132.945 34.0453 132.806 34.0933C132.326 34.4129 131.887 34.7765 131.487 35.188C131.487 35.188 132.186 35.1361 132.262 35.1361C132.338 35.1361 132.594 34.6726 132.702 34.5967C132.81 34.5208 132.905 34.4848 133.153 34.365C132.83 34.8165 132.905 35.4358 133.325 35.7994C133.141 35.5876 133.325 35.224 133.325 35.224L133.693 35.4557C133.417 34.9443 133.609 34.309 134.12 34.0334C134.14 34.0214 134.164 34.0134 134.184 34.0014H134.252C134.348 34.1572 134.56 34.2052 134.715 34.1053C134.759 34.0773 134.791 34.0453 134.819 34.0014L134.963 34.0493C135.463 34.313 135.658 34.9323 135.395 35.4398C135.395 35.4398 135.395 35.4438 135.391 35.4517L135.758 35.22C135.758 35.22 135.962 35.5876 135.758 35.7954C136.13 35.4597 136.226 34.9164 135.99 34.4809C136.206 34.5847 136.358 34.6646 136.382 34.6846C136.409 34.7046 136.717 35.224 136.825 35.224C136.933 35.224 137.6 35.2759 137.6 35.2759C137.201 34.8684 136.753 34.5008 136.282 34.1812C136.186 34.1332 135.882 34.0374 135.507 33.9175C135.399 33.8216 135.275 33.7457 135.139 33.6897C135.415 33.7057 135.694 33.7057 135.974 33.6897C136.114 33.7697 136.238 33.8655 136.346 33.9894C136.449 34.0653 136.541 34.2171 136.701 34.2731C136.861 34.333 137.057 34.4129 137.4 34.5368C137.744 34.6606 138.515 34.4169 139.302 34.5368C139.546 34.5688 140.449 33.9814 140.233 33.9974C140.073 33.9854 139.91 33.9495 139.758 33.8935C140.001 33.8216 140.625 33.1943 140.413 33.2622C140.121 33.2822 139.826 33.2622 139.542 33.1983C139.738 33.0385 140.037 32.615 139.898 32.6909C139.59 32.6909 139.29 32.6429 139.003 32.547H138.859H138.931C139.346 32.3433 139.778 32.1035 140.197 31.8478C140.553 31.9557 140.9 32.0836 141.24 32.2314C141.436 32.2634 141.624 32.3073 141.807 32.3712C142.167 32.3593 142.523 32.2794 142.858 32.1355C143.23 32.0156 143.182 31.7919 143.521 31.668C143.861 31.5442 144.157 31.2166 143.969 31.3164C143.645 31.3524 143.322 31.3164 143.014 31.2206C143.082 31.2206 143.014 31.1327 143.449 30.7771C143.633 30.6092 143.781 30.0019 143.609 30.1378C143.481 30.1897 143.342 30.2097 143.206 30.1897C143.318 29.9939 143.438 29.3986 143.33 29.5385C143.17 29.6983 142.97 29.8301 142.754 29.91C143.014 29.6983 143.246 29.4665 143.453 29.2108C143.605 29.1469 143.761 29.091 143.921 29.067C144.133 29.067 144.756 29.1429 144.908 28.9911C145.06 28.8393 145.291 28.5476 145.375 28.4996C145.563 28.2639 145.711 28.0042 145.819 27.7245C146.003 27.4249 146.238 27.1532 146.518 26.9454C146.25 26.8975 145.975 26.8975 145.707 26.9454C145.751 26.6817 145.851 26.434 146.003 26.2142C146.003 26.2142 145.303 26.398 145.132 26.426C144.868 26.426 144.616 26.5299 144.432 26.7097L144.66 25.9106C144.672 25.8507 144.68 25.7987 144.704 25.7428C144.788 25.6149 144.92 25.515 145.072 25.4671C145.587 25.2953 146.059 25.2553 146.246 25.0675L146.602 24.684C146.738 24.5242 146.846 24.3404 146.914 24.1406C146.989 23.8729 147.049 23.5892 147.085 23.3175L147.097 23.3055L147.073 23.3095ZM145.204 22.8061C145.184 23.1737 145.128 23.5373 145.044 23.9009C145.032 23.757 144.996 23.6092 144.932 23.4813C144.856 23.3255 144.748 23.3255 144.7 23.1697C144.652 23.0139 144.468 22.9579 144.368 22.8341C144.273 22.7302 144.169 22.6343 144.057 22.5544C143.981 22.878 143.961 23.2057 144.005 23.5333C144.025 23.5852 144.041 23.6412 144.049 23.6931L143.909 23.6012C143.773 23.9089 143.909 24.2245 143.985 24.5042C144.033 24.632 144.093 24.7519 144.169 24.8718C144.217 24.9757 144.169 25.0755 144.245 25.1554C144.32 25.2354 144.404 25.2314 144.524 25.3392C144.524 25.4791 144.544 25.6149 144.588 25.7428C144.492 26.0784 144.376 26.442 144.261 26.7536C144.249 26.6258 144.213 26.5059 144.141 26.398C144.037 26.2862 143.957 26.1463 143.909 25.9985C143.805 25.7188 143.597 25.7188 143.565 25.4311C143.517 25.6349 143.485 25.8467 143.469 26.0544C143.449 26.2382 143.465 26.414 143.513 26.5938C143.525 26.7137 143.509 26.8295 143.465 26.9454C143.465 26.7896 143.434 26.6378 143.37 26.4979C143.318 26.402 143.302 26.2942 143.318 26.1863C143.21 26.3741 143.074 26.5539 142.918 26.7097L142.826 26.5499C144.185 24.1686 143.869 20.1012 143.813 19.5538C144.041 19.5099 143.997 19.394 143.997 19.394L143.921 19.0943C143.921 19.0943 143.965 19.1263 143.993 19.1263H144.041C144.069 19.1383 144.101 19.1383 144.133 19.1263C144.169 19.0983 144.193 19.0544 144.197 19.0064C144.265 19.1023 144.364 19.1782 144.476 19.2342C144.664 19.2861 144.82 19.374 144.844 19.4459C144.964 19.9374 145.048 20.4328 145.108 20.9283C144.904 20.6965 144.848 20.229 144.408 20.0173C144.42 20.1212 144.42 20.229 144.408 20.3289C144.376 20.4648 144.364 20.5966 144.364 20.7325C144.225 20.6406 144.101 20.5207 144.009 20.3809C143.965 20.7165 143.997 21.0561 144.113 21.3678C144.301 21.7034 144.301 21.8832 144.496 21.9551C144.608 21.999 144.716 22.063 144.808 22.1429C144.9 22.2068 145.008 22.2507 145.12 22.2667C145.148 22.2667 145.176 22.2827 145.192 22.3107C145.196 22.3626 145.211 22.4146 145.235 22.4665C145.235 22.5624 145.235 22.6982 145.231 22.8101H145.227L145.204 22.8061ZM127.116 20.0053L128.514 20.9682C128.498 21.4836 128.562 21.995 128.71 22.4905L127.568 24.4043C127.372 24.0048 126.892 22.6663 127.116 20.0053ZM125.014 18.8786C125.062 18.7867 125.15 18.7228 125.25 18.6948C125.262 18.7987 125.23 18.9065 125.158 18.9785C125.142 19.0064 125.122 19.0264 125.09 19.0304C125.07 19.0344 125.042 19.0344 125.018 19.0304C125.014 19.0184 125.006 19.0024 125.014 18.9865C124.998 18.9505 124.998 18.9065 125.014 18.8666V18.8786ZM129.537 15.6782L130.608 16.8968C130.544 17.5801 130.612 18.2713 130.824 18.9265L129.821 20.5966C129.605 20.1052 129.114 18.6748 129.525 15.6782H129.537ZM133.816 14.9031C134.3 14.8152 134.803 14.8152 135.287 14.9031L135.443 15.1628C134.855 15.0349 134.248 15.0349 133.661 15.1628L133.82 14.9031H133.816ZM133.94 14.6913L134.548 13.6685L135.155 14.6794C134.751 14.6274 134.336 14.6274 133.932 14.6833H133.936L133.94 14.6913ZM133.521 15.3945C134.192 15.2107 134.903 15.2107 135.578 15.3945L135.746 15.6742C134.971 15.4065 134.132 15.4065 133.357 15.6742L133.525 15.3945H133.521ZM133.189 15.9539C134.056 15.5783 135.039 15.5783 135.906 15.9539L140.101 22.9979H138.571L138.367 22.8581L138.295 22.7861C138.191 22.7142 138.068 22.6942 137.952 22.7222C137.888 22.7342 137.828 22.7542 137.768 22.7861C137.708 22.8141 137.656 22.8501 137.608 22.89H137.532C137.396 22.8181 137.273 22.7382 137.157 22.6463C137.125 22.6143 137.081 22.5824 137.037 22.5584C136.965 22.5224 136.885 22.4985 136.805 22.5065C136.749 22.5025 136.693 22.5025 136.637 22.5065C136.561 22.5344 136.485 22.5704 136.421 22.6103L136.298 22.7022C136.222 22.6543 136.138 22.6103 136.054 22.5784C135.978 22.5464 135.902 22.5065 135.826 22.4665C135.722 22.4066 135.626 22.3386 135.542 22.2627L135.439 22.1868C135.363 22.1429 135.283 22.1149 135.195 22.1109C135.135 22.0989 135.071 22.0989 135.011 22.1109C134.931 22.1269 134.855 22.1549 134.783 22.1988L134.671 22.2707V19.8415C134.931 19.8415 135.123 19.7376 135.123 19.6257C135.075 19.2542 134.931 18.8986 134.699 18.6029C134.544 18.499 134.34 18.499 134.184 18.6029C134.184 18.6029 133.872 18.7907 134.028 19.0504C134.028 19.0504 134.028 19.1263 134.2 19.0504C134.26 19.0304 134.304 18.9745 134.312 18.9105V19.0024C134.312 19.0943 134.188 19.1423 134.176 19.1463C134.112 19.3061 134.068 19.4739 134.04 19.6417C134.04 19.7536 134.244 19.8455 134.504 19.8575V22.3347C134.396 22.2707 134.292 22.1948 134.196 22.1189C134.164 22.0869 134.128 22.059 134.084 22.031C134.008 21.987 133.928 21.9591 133.84 21.9551C133.772 21.9431 133.701 21.9431 133.633 21.9551C133.553 21.9751 133.473 22.003 133.397 22.047C133.321 22.0909 133.253 22.1389 133.181 22.1868L133.089 22.1349L132.949 22.063C132.885 22.043 132.822 22.015 132.762 21.9751C132.59 21.8872 132.426 21.7793 132.278 21.6514L132.234 21.6195C132.122 21.5276 131.983 21.4756 131.835 21.4596H131.723C131.631 21.4716 131.539 21.4956 131.447 21.5316C131.343 21.5755 131.247 21.6275 131.163 21.6914C131.06 21.7633 130.964 21.8352 130.88 21.9231C130.768 22.035 130.664 22.1549 130.556 22.2787C130.46 22.3986 130.368 22.5224 130.292 22.6543C130.233 22.7302 130.165 22.7981 130.097 22.87L129.961 22.9899H128.97L133.181 15.9499L133.189 15.9539ZM139.25 20.5926L138.259 18.9225C138.471 18.2673 138.543 17.5761 138.475 16.8928L139.57 15.6822C139.985 18.6788 139.482 20.1052 139.246 20.5926H139.25ZM143.857 18.6948C143.961 18.7228 144.045 18.7867 144.093 18.8786C144.105 18.9065 144.105 18.9385 144.093 18.9705C144.097 18.9905 144.097 19.0144 144.093 19.0344C144.073 19.0384 144.045 19.0384 144.025 19.0344C143.993 19.0224 143.965 19.0064 143.949 18.9825C143.885 18.9026 143.845 18.8067 143.853 18.7028H143.857V18.6948ZM141.536 24.4083L140.393 22.4905C140.545 21.995 140.609 21.4836 140.581 20.9682L141.979 20.0053C142.195 22.6543 141.719 24.0008 141.528 24.4123H141.532L141.536 24.4083ZM126.748 26.6897L127.807 24.9157H140.868L140.804 24.8838C140.725 24.8398 140.653 24.7879 140.577 24.7279C140.441 24.6241 140.325 24.5162 140.205 24.4043C140.085 24.2924 139.874 24.0767 139.698 23.9089L139.386 23.5653L139.246 23.4214C139.158 23.3335 139.062 23.2616 138.959 23.1937L138.819 23.1178H140.217L142.339 26.6817H126.736H126.74L126.748 26.6897ZM128.902 23.0778H129.705C129.549 23.2057 129.393 23.3375 129.222 23.4534H129.174L128.914 23.6252C128.774 23.7291 128.65 23.8409 128.522 23.9528L128.151 24.3044L128.898 23.0698H128.902V23.0778ZM134.496 22.5904L134.588 22.6343L134.691 22.6783C134.783 22.7302 134.867 22.7901 134.951 22.8501C135.091 22.9579 135.219 23.0818 135.335 23.2176C135.507 23.4134 135.69 23.6092 135.878 23.801L136.11 24.0367C136.306 24.2325 136.501 24.4203 136.713 24.6041L136.757 24.636H135.766L135.698 24.5841C135.558 24.4722 135.419 24.3564 135.283 24.2325C135.147 24.1086 134.975 23.9528 134.831 23.813C134.508 23.4893 134.196 23.1737 133.892 22.8341L133.733 22.6623C133.621 22.5384 133.489 22.4186 133.357 22.3187C133.421 22.2707 133.493 22.2268 133.565 22.1988H133.701C133.776 22.1948 133.856 22.2028 133.928 22.2428C133.96 22.2587 133.992 22.2787 134.024 22.3067C134.1 22.3706 134.18 22.4305 134.26 22.4905C134.344 22.5424 134.432 22.5864 134.524 22.6303L134.504 22.6023L134.496 22.5904ZM138.611 23.2896H138.659L138.771 23.3415C138.867 23.3934 138.959 23.4654 139.035 23.5453C139.086 23.5932 139.142 23.6412 139.19 23.7011C139.282 23.809 139.386 23.9129 139.486 24.0127L139.762 24.2924C139.866 24.4043 139.989 24.5202 140.093 24.6201H139.518L139.21 24.3444C139.106 24.2525 139.015 24.1566 138.915 24.0647C138.703 23.8529 138.495 23.6372 138.299 23.4254L138.175 23.2856C138.072 23.1817 137.964 23.0898 137.852 23.0059C137.9 22.9739 137.956 22.9539 138.012 22.934C138.06 22.918 138.116 22.918 138.167 22.934L138.219 22.9779C138.343 23.1018 138.479 23.2057 138.623 23.2896H138.603H138.611ZM137.84 23.3575C137.92 23.4214 137.992 23.4973 138.056 23.5732L138.507 24.0567C138.647 24.2005 138.787 24.3404 138.931 24.4762L139.102 24.636H138.287L138.128 24.5002L137.692 24.1086L137.456 23.8769C137.249 23.6651 137.037 23.4534 136.833 23.2256L136.697 23.0818C136.625 23.0059 136.545 22.93 136.465 22.866C136.521 22.8301 136.573 22.7941 136.633 22.7702H136.757C136.801 22.7582 136.841 22.7582 136.881 22.7702L136.957 22.8221C137.081 22.918 137.217 23.0099 137.356 23.0858L137.48 23.1337L137.576 23.1777C137.668 23.2296 137.752 23.2896 137.836 23.3615H137.816H137.844L137.84 23.3575ZM136.601 23.3535C136.713 23.4893 136.833 23.6132 136.953 23.7291C137.073 23.8489 137.169 23.9608 137.276 24.0647C137.384 24.1686 137.652 24.4363 137.852 24.6081L137.9 24.652H137.173L137.017 24.5282C136.845 24.3843 136.685 24.2325 136.521 24.0807L136.262 23.821C136.03 23.5932 135.814 23.3575 135.598 23.1218L135.443 22.9619C135.319 22.8261 135.175 22.7022 135.023 22.5944C134.951 22.5504 134.883 22.5065 134.807 22.4745C134.871 22.4305 134.943 22.3986 135.015 22.3826C135.051 22.3786 135.095 22.3786 135.135 22.3826C135.179 22.3706 135.227 22.3706 135.271 22.3826L135.359 22.4465C135.515 22.5744 135.686 22.6823 135.87 22.7742H135.946L136.082 22.8381C136.174 22.898 136.266 22.9619 136.346 23.0339C136.453 23.1258 136.549 23.2296 136.629 23.3415H136.609V23.3535H136.601ZM133.417 22.7662C133.489 22.8381 133.553 22.91 133.613 22.9819C133.673 23.0538 133.768 23.1417 133.84 23.2256C133.908 23.3055 134.116 23.5093 134.244 23.6492C134.488 23.9009 134.739 24.1446 134.999 24.3803L135.307 24.644H128.211L128.315 24.5401L128.638 24.2325L129.054 23.8809L129.33 23.6971L129.405 23.6452C129.633 23.4893 129.845 23.3175 130.045 23.1297C130.157 23.0219 130.264 22.91 130.368 22.7861C130.456 22.6503 130.54 22.5264 130.644 22.4026C130.748 22.2787 130.812 22.2148 130.904 22.1229C130.996 22.027 131.096 21.9471 131.203 21.8712C131.275 21.8232 131.347 21.7793 131.431 21.7473L131.599 21.7034C131.695 21.6914 131.799 21.7074 131.883 21.7553C131.927 21.7553 131.975 21.7673 132.018 21.7753C132.098 21.8472 132.178 21.9031 132.27 21.9631L132.578 22.1469L132.75 22.2228L132.87 22.2747C132.965 22.3267 133.065 22.3946 133.149 22.4625C133.257 22.5504 133.353 22.6463 133.453 22.7422H133.433V22.7582L133.417 22.7662ZM131.803 27.1931C132.146 27.4528 132.542 27.6366 132.953 27.7485C131.727 28.1081 130.408 27.9043 129.346 27.1931H131.799H131.803ZM134.26 28.6475C134.26 28.6475 134.428 27.7525 134.524 27.1931C134.62 27.7525 134.799 28.6475 134.799 28.6475C134.847 28.9471 134.755 29.2628 134.548 29.4865C134.34 29.2588 134.24 28.9471 134.284 28.6395H134.264L134.26 28.6475ZM137.249 27.2011H139.702C138.643 27.9123 137.316 28.1121 136.094 27.7565C136.521 27.6486 136.917 27.4608 137.269 27.1971H137.249V27.2011ZM143.497 18.3991C143.481 18.3672 143.481 18.3352 143.497 18.3032V18.2593C143.585 18.3192 143.653 18.3951 143.713 18.475V18.5669C143.633 18.535 143.561 18.471 143.521 18.3951H143.501L143.497 18.3991ZM141.588 14.116C141.544 14.152 141.484 14.152 141.444 14.116C141.368 14.0561 141.316 13.9642 141.3 13.8723C141.396 13.8723 141.488 13.9202 141.56 13.9921C141.596 14.0241 141.612 14.072 141.592 14.116H141.588ZM141.384 13.4168L141.66 13.3249L141.596 13.6086H141.368L141.384 13.4128V13.4168ZM140.864 13.4687C140.864 13.4687 140.908 13.4647 140.928 13.4687C140.956 13.4567 140.988 13.4567 141.02 13.4687C141.096 13.5287 141.148 13.6126 141.164 13.7045H141.116C141.032 13.6885 140.956 13.6445 140.888 13.5846C140.836 13.5566 140.812 13.4887 140.844 13.4328C140.844 13.4208 140.856 13.4168 140.86 13.4128V13.4647L140.864 13.4687ZM134.887 10.1325C134.951 10.1325 135.007 10.1325 135.007 10.2244C135.007 10.3163 134.955 10.3163 134.887 10.3163C134.783 10.3163 134.683 10.2883 134.604 10.2244C134.679 10.1445 134.779 10.1006 134.887 10.1045V10.1325ZM134.544 9.58914L134.687 9.84884L134.548 10.0166L134.404 9.84884L134.544 9.58914ZM134.18 10.3203C134.148 10.3203 134.116 10.3083 134.088 10.2883C134.084 10.2724 134.084 10.2524 134.088 10.2364C134.076 10.2204 134.076 10.2004 134.088 10.1845C134.12 10.1725 134.152 10.1725 134.184 10.1845C134.288 10.1725 134.388 10.2044 134.464 10.2764C134.372 10.3203 134.276 10.3283 134.18 10.3043V10.3323V10.3203ZM134.484 12.0104C134.624 11.7946 134.727 11.5589 134.795 11.3112C134.891 11.8665 134.855 12.4379 134.699 12.9773L134.564 12.7615L134.128 13.4607C134.088 12.9533 134.208 12.4499 134.48 12.0104H134.484ZM128.071 13.4647C128.099 13.4487 128.135 13.4487 128.163 13.4647C128.179 13.4527 128.203 13.4527 128.215 13.4647C128.219 13.4807 128.219 13.5007 128.215 13.5167C128.215 13.5526 128.199 13.5886 128.167 13.6086C128.103 13.6845 128.007 13.7284 127.907 13.7324C127.907 13.6126 127.971 13.5127 128.067 13.4487V13.4647H128.071ZM127.432 13.3049L127.711 13.3968V13.6245H127.496L127.432 13.3129V13.3049ZM127.568 14.108C127.568 14.108 127.528 14.112 127.512 14.108C127.5 14.088 127.5 14.0641 127.512 14.0441C127.512 14.0081 127.532 13.9722 127.56 13.9522C127.623 13.8803 127.715 13.8323 127.811 13.8283C127.791 13.9322 127.735 14.0281 127.655 14.092C127.627 14.108 127.595 14.112 127.564 14.108H127.568ZM125.574 18.3951C125.522 18.483 125.434 18.539 125.338 18.5669V18.479C125.398 18.3871 125.474 18.3112 125.566 18.2513C125.566 18.2513 125.57 18.2873 125.566 18.3032C125.578 18.3232 125.582 18.3512 125.582 18.3791V18.3911L125.574 18.3951ZM123.896 22.4226L123.94 22.2667C123.94 22.2667 123.976 22.2308 124.004 22.2228C124.115 22.2068 124.223 22.1628 124.315 22.0989C124.407 22.019 124.515 21.9551 124.627 21.9111C124.831 21.8392 124.831 21.6594 125.01 21.3238C125.122 21.0042 125.162 20.6725 125.114 20.3369C125.022 20.4768 124.907 20.5966 124.763 20.6885C124.763 20.5527 124.747 20.4128 124.715 20.285C124.703 20.1811 124.703 20.0732 124.715 19.9733C124.251 20.2091 124.203 20.6725 124.016 20.8843C124.072 20.3849 124.155 19.8894 124.275 19.402C124.371 19.2941 124.503 19.2182 124.647 19.1902C124.755 19.1423 124.847 19.0664 124.923 18.9745C124.923 19.0224 124.954 19.0664 124.99 19.0943C125.018 19.1063 125.05 19.1063 125.082 19.0943H125.13C125.13 19.0943 125.178 19.0784 125.198 19.0624L125.15 19.3261C125.15 19.3261 125.118 19.4459 125.334 19.4859C125.286 20.0453 124.966 24.1246 126.337 26.4819L126.241 26.6378C126.089 26.4779 125.957 26.3021 125.841 26.1144C125.857 26.2222 125.841 26.3301 125.794 26.426C125.726 26.5658 125.686 26.7177 125.69 26.8735C125.658 26.7616 125.634 26.6418 125.642 26.5219C125.694 26.3501 125.71 26.1663 125.69 25.9825C125.67 25.7707 125.634 25.567 125.594 25.3592C125.594 25.6429 125.358 25.6429 125.25 25.9266C125.194 26.0784 125.122 26.2222 125.018 26.3461C124.943 26.454 124.899 26.5738 124.895 26.7017C124.775 26.3661 124.663 26.0025 124.567 25.6908C124.611 25.563 124.631 25.4231 124.631 25.2873C124.751 25.1834 124.863 25.1754 124.911 25.1035C124.959 25.0316 124.911 24.9197 124.998 24.8198C125.066 24.708 125.126 24.5841 125.17 24.4522C125.29 24.1686 125.314 23.8489 125.246 23.5493L125.106 23.6012C125.106 23.5493 125.122 23.4933 125.138 23.4414C125.174 23.1138 125.158 22.7861 125.09 22.4625C124.978 22.5424 124.871 22.6383 124.779 22.7422C124.675 22.866 124.495 22.926 124.447 23.0778C124.399 23.2296 124.287 23.2376 124.215 23.3895C124.147 23.5173 124.107 23.6651 124.095 23.809C124.016 23.4574 123.96 23.1098 123.936 22.7542C123.908 22.7022 123.904 22.5664 123.908 22.4265H123.904L123.896 22.4226ZM135.598 33.1663C135.355 33.1663 135.115 33.2263 134.899 33.3342C135.175 32.8707 135.475 32.4312 135.81 32.0037C135.954 32.4032 135.874 32.8427 135.598 33.1663ZM134.2 33.3342C133.984 33.2263 133.745 33.1663 133.501 33.1663C133.209 32.8467 133.117 32.3912 133.269 31.9877C133.601 32.4072 133.904 32.8547 134.18 33.3182L134.2 33.3381V33.3342ZM142.179 30.0579V29.986C142.239 29.8261 142.271 29.6583 142.283 29.4905C142.251 29.2788 142.195 29.075 142.123 28.8752C142.055 28.6874 141.871 28.2519 141.687 28.176C141.687 28.176 141.532 28.6675 141.484 28.8752C141.452 29.047 141.388 29.2188 141.296 29.3707L141.184 29.5664C141.168 29.4546 141.168 29.3347 141.184 29.2228C141.184 28.8792 140.673 28.3398 140.673 28.3398C140.657 28.6515 140.565 28.9551 140.409 29.2228C140.265 29.4506 140.165 29.7023 140.129 29.966C140.113 30.1498 140.041 30.3216 139.918 30.4574C139.762 30.6732 139.918 31.5562 139.918 31.6521C139.574 31.8678 139.218 32.0796 138.875 32.2434L138.539 32.3992L138.603 32.3353C138.847 32.1195 139.023 31.8438 139.118 31.5362C139.278 31.5362 138.903 31.4643 138.683 31.4882C138.807 31.2925 138.987 31.0248 139.11 30.789C139.234 30.5533 138.275 30.853 138.275 30.853L138.024 30.9489C138.092 30.7331 138.144 30.5134 138.179 30.2936C138.179 30.2177 137.78 30.3455 137.48 30.4814C137.249 30.6212 137.033 30.7771 136.829 30.9489C136.549 31.1207 136.517 31.5722 136.386 31.7839C136.322 31.8958 136.266 32.0156 136.218 32.1355C136.218 31.9238 136.122 31.8279 136.034 31.7839H135.986L135.678 31.736C135.411 31.688 135.135 31.7999 134.979 32.0316C134.835 32.3872 134.719 32.7548 134.636 33.1264C134.592 33.1224 134.548 33.1224 134.512 33.1264C134.476 33.1224 134.432 33.1224 134.392 33.1264C134.32 32.7388 134.22 32.3553 134.088 31.9837C133.932 31.7559 133.657 31.6441 133.389 31.688L133.081 31.736H133.033C132.937 31.7839 132.846 31.9198 132.842 32.2194C132.81 32.0476 132.746 31.8838 132.654 31.736C132.53 31.5242 132.486 31.0807 132.214 30.9009C132.01 30.7291 131.791 30.5733 131.559 30.4334C131.247 30.2976 130.86 30.1697 130.86 30.2457C130.892 30.4654 130.94 30.6892 131.004 30.9009L130.76 30.805C130.76 30.805 129.829 30.5613 129.921 30.7411C130.013 30.9169 130.221 31.2365 130.356 31.4403C130.129 31.4403 129.753 31.4403 129.917 31.4882C130.009 31.7879 130.169 32.0636 130.4 32.2873L130.472 32.3513C130.348 32.3033 130.237 32.2474 130.129 32.1954C129.793 32.0276 129.429 31.8199 129.086 31.6041C129.086 31.5082 129.282 30.6252 129.13 30.4095C129.006 30.2736 128.934 30.1018 128.918 29.918C128.882 29.6543 128.778 29.4026 128.634 29.1749C128.475 28.9072 128.387 28.6035 128.375 28.2919C128.375 28.2919 127.831 28.8313 127.859 29.1749C127.871 29.2868 127.871 29.4026 127.859 29.5185C127.827 29.4466 127.783 29.3826 127.739 29.3227C127.651 29.1669 127.588 28.9991 127.556 28.8273C127.5 28.6555 127.352 28.1281 127.352 28.1281C127.164 28.204 126.984 28.6395 126.908 28.8273C126.832 29.027 126.78 29.2308 126.752 29.4426C126.72 29.5664 126.828 29.8142 126.856 29.938V30.0099C126.457 29.7302 126.109 29.3747 125.834 28.9631C125.845 28.8672 125.881 28.7753 125.945 28.6994C126.105 28.5236 126.237 28.3159 126.329 28.0961C126.357 27.9403 126.357 27.7845 126.329 27.6286C126.345 27.4728 126.373 27.321 126.405 27.1652H126.84C128.798 28.6714 131.411 29.0231 133.701 28.0881C133.689 28.1321 133.673 28.168 133.653 28.208C133.653 28.208 132.953 29.1629 134.536 29.4785C136.126 29.1549 135.423 28.208 135.423 28.208C135.403 28.172 135.379 28.1321 135.367 28.0881C137.644 29.0191 140.241 28.6794 142.199 27.1931H142.638C142.67 27.345 142.694 27.5008 142.71 27.6566C142.682 27.8124 142.682 27.9683 142.71 28.1241C142.806 28.3438 142.938 28.5516 143.102 28.7274C143.162 28.8073 143.194 28.8992 143.206 28.9911C142.93 29.4066 142.586 29.7662 142.179 30.0539H142.175H142.191L142.179 30.0579Z" fill="#919FB5"/>
<path d="M139.658 30.9526C139.578 30.9526 139.506 31.0126 139.502 31.0925C139.502 31.1844 139.562 31.2523 139.646 31.2603H139.65C139.734 31.2603 139.806 31.1884 139.806 31.1045C139.806 31.0166 139.734 30.9526 139.65 30.9526H139.654H139.658Z" fill="#919FB5"/>
<path d="M140.541 32.0312C140.453 32.0312 140.381 32.1032 140.381 32.1911C140.381 32.279 140.453 32.3469 140.537 32.3469H140.541C140.629 32.3469 140.697 32.275 140.697 32.1911C140.697 32.1072 140.625 32.0352 140.541 32.0312Z" fill="#919FB5"/>
<path d="M142.582 28.6157C142.498 28.6157 142.426 28.6876 142.426 28.7715C142.426 28.8634 142.498 28.9314 142.582 28.9314C142.666 28.9314 142.737 28.8594 142.737 28.7755C142.737 28.6916 142.678 28.6197 142.594 28.6157H142.582Z" fill="#919FB5"/>
<path d="M143.681 29.3988C143.681 29.4907 143.757 29.5706 143.848 29.5706C143.944 29.5706 144.02 29.4907 144.02 29.3988C144.02 29.3069 143.94 29.231 143.848 29.231C143.757 29.235 143.689 29.3069 143.681 29.3988Z" fill="#919FB5"/>
<path d="M144.08 25.735C144.172 25.735 144.252 25.6631 144.252 25.5752C144.272 25.4713 144.208 25.3794 144.116 25.3634C144.024 25.3474 143.928 25.4074 143.912 25.4993V25.5712C143.912 25.6631 143.988 25.739 144.08 25.739V25.735Z" fill="#919FB5"/>
<path d="M144.596 22.2945C144.504 22.2945 144.424 22.3664 144.424 22.4543C144.424 22.5582 144.504 22.6301 144.596 22.6301C144.688 22.6301 144.763 22.5502 144.763 22.4583C144.763 22.3704 144.7 22.2985 144.608 22.2905H144.592H144.596V22.2945Z" fill="#919FB5"/>
<path d="M145.555 19.4976C145.646 19.4976 145.726 19.4257 145.726 19.3378C145.726 19.2419 145.646 19.166 145.555 19.166C145.463 19.166 145.387 19.2459 145.387 19.3378C145.391 19.4257 145.467 19.4936 145.555 19.4976Z" fill="#919FB5"/>
<path d="M144.344 19.8099C144.44 19.8099 144.515 19.73 144.515 19.6381C144.515 19.5462 144.436 19.4663 144.344 19.4663C144.252 19.4663 144.172 19.5462 144.172 19.6381C144.172 19.73 144.252 19.8099 144.344 19.8099Z" fill="#919FB5"/>
<path d="M143.325 17.0207C143.325 16.9289 143.245 16.8529 143.153 16.8609C143.061 16.8609 142.993 16.9328 142.985 17.0207C142.965 17.1166 143.029 17.2085 143.121 17.2245C143.213 17.2405 143.309 17.1806 143.325 17.0887V17.0168V17.0207Z" fill="#919FB5"/>
<path d="M144.056 16.4773C144.152 16.4973 144.244 16.4334 144.26 16.3415C144.276 16.2496 144.216 16.1537 144.124 16.1377H144.056C143.965 16.1377 143.889 16.2136 143.889 16.3055C143.889 16.3974 143.957 16.4773 144.048 16.4773H144.052H144.056Z" fill="#919FB5"/>
<path d="M145.771 22.4984C145.771 22.5903 145.85 22.6662 145.942 22.6582C146.034 22.6422 146.094 22.5503 146.07 22.4584C146.054 22.3945 146.006 22.3386 145.942 22.3306C145.85 22.3306 145.771 22.4065 145.771 22.4984Z" fill="#919FB5"/>
<path d="M129.445 30.9528C129.365 30.9528 129.301 31.0168 129.289 31.0967C129.289 31.1846 129.361 31.2525 129.445 31.2565C129.533 31.2565 129.605 31.1846 129.605 31.0967C129.605 31.0088 129.529 30.9448 129.445 30.9528Z" fill="#919FB5"/>
<path d="M128.722 32.1911C128.722 32.1032 128.65 32.0352 128.566 32.0312C128.478 32.0312 128.41 32.1072 128.406 32.1911C128.406 32.279 128.478 32.3469 128.562 32.3469H128.566C128.65 32.3469 128.722 32.275 128.722 32.1911Z" fill="#919FB5"/>
<path d="M126.52 28.6157C126.436 28.6157 126.364 28.6876 126.364 28.7715C126.364 28.8634 126.436 28.9314 126.52 28.9314C126.608 28.9473 126.692 28.8954 126.708 28.8075C126.724 28.7196 126.672 28.6357 126.584 28.6197H126.52V28.6157Z" fill="#919FB5"/>
<path d="M125.258 29.5706C125.354 29.5706 125.429 29.4907 125.429 29.3988C125.425 29.3069 125.35 29.231 125.258 29.231C125.166 29.231 125.09 29.3069 125.09 29.3988C125.09 29.4907 125.158 29.5706 125.25 29.5706H125.254H125.258Z" fill="#919FB5"/>
<path d="M125.018 25.395C124.926 25.395 124.851 25.4749 124.851 25.5668C124.851 25.6547 124.915 25.7266 125.006 25.7346H125.022C125.114 25.7346 125.194 25.6587 125.194 25.5668C125.194 25.4709 125.114 25.395 125.022 25.395H125.018Z" fill="#919FB5"/>
<path d="M124.131 25.8748C124.131 25.7829 124.055 25.707 123.963 25.707C123.871 25.707 123.791 25.7829 123.791 25.8748C123.791 25.9707 123.871 26.0466 123.963 26.0466C124.055 26.0466 124.131 25.9667 124.131 25.8748Z" fill="#919FB5"/>
<path d="M124.502 22.6383C124.598 22.6383 124.674 22.5584 124.674 22.4665C124.674 22.3746 124.598 22.2987 124.506 22.2987H124.502C124.41 22.2867 124.33 22.3586 124.318 22.4505V22.5024C124.334 22.5903 124.414 22.6463 124.502 22.6423V22.6383Z" fill="#919FB5"/>
<path d="M123.552 19.4976C123.643 19.4976 123.719 19.4257 123.723 19.3378C123.723 19.2419 123.643 19.166 123.552 19.166C123.46 19.166 123.384 19.2419 123.384 19.3338C123.384 19.4257 123.452 19.5016 123.544 19.5016H123.548L123.552 19.4976Z" fill="#919FB5"/>
<path d="M124.766 19.47C124.67 19.45 124.578 19.5139 124.562 19.6058C124.546 19.6977 124.606 19.7936 124.698 19.8096H124.77C124.862 19.8096 124.938 19.7337 124.938 19.6418C124.938 19.5459 124.862 19.47 124.77 19.47H124.766Z" fill="#919FB5"/>
<path d="M125.789 17.0207C125.789 17.1126 125.865 17.1925 125.957 17.1925C126.053 17.1925 126.129 17.1126 126.129 17.0207C126.125 16.9288 126.045 16.8608 125.957 16.8608C125.865 16.8608 125.797 16.9328 125.789 17.0207Z" fill="#919FB5"/>
<path d="M125.018 16.4773C125.114 16.4973 125.205 16.4334 125.221 16.3415C125.241 16.2456 125.178 16.1537 125.086 16.1377H125.014C124.918 16.1577 124.858 16.2496 124.878 16.3415C124.894 16.4134 124.95 16.4653 125.014 16.4773H125.018Z" fill="#919FB5"/>
<path d="M123.336 22.4985C123.336 22.4066 123.264 22.3267 123.176 22.3267C123.088 22.3267 123.004 22.3986 123.004 22.4865C123.004 22.5744 123.072 22.6583 123.164 22.6583H123.168C123.26 22.6583 123.328 22.5864 123.336 22.4985Z" fill="#919FB5"/>
<path d="M132.533 20.0893C132.609 20.0893 132.629 20.0893 132.657 20.1652H132.705L132.657 20.0613L132.957 19.9375V19.8735L132.537 20.0613V20.0893H132.533Z" fill="#919FB5"/>
<path d="M132.438 19.5578H132.386L132.434 19.7896H132.693V19.6977C132.661 19.6857 132.633 19.6617 132.621 19.6258C132.609 19.5738 132.641 19.5139 132.697 19.5019C132.753 19.4859 132.805 19.5139 132.821 19.5658C132.821 19.6258 132.821 19.6697 132.769 19.6857V19.7496C132.845 19.7296 132.881 19.6457 132.861 19.5778C132.849 19.4899 132.769 19.438 132.689 19.45H132.669C132.59 19.4659 132.542 19.5458 132.558 19.6218V19.6337C132.57 19.6657 132.586 19.6937 132.613 19.7097H132.49L132.446 19.5658L132.438 19.5578Z" fill="#919FB5"/>
<path d="M132.465 19.1783C132.517 19.1783 132.569 19.1463 132.585 19.0904V18.9945C132.585 18.9186 132.585 18.8986 132.677 18.9026C132.769 18.9066 132.749 18.9905 132.741 19.0264C132.737 19.0624 132.741 19.1503 132.621 19.1463V19.2102C132.669 19.2222 132.717 19.2062 132.745 19.1663C132.777 19.1303 132.797 19.0864 132.797 19.0304C132.797 18.9425 132.797 18.8426 132.673 18.8347C132.613 18.8227 132.561 18.8666 132.549 18.9265L132.501 19.0624C132.501 19.0944 132.469 19.1143 132.437 19.1143C132.369 19.1143 132.361 19.0384 132.369 18.9945C132.369 18.9425 132.409 18.8906 132.461 18.8906H132.477V18.8267C132.425 18.8267 132.334 18.8267 132.318 18.9985C132.302 19.0744 132.349 19.1503 132.425 19.1663H132.473H132.469L132.465 19.1783Z" fill="#919FB5"/>
<path d="M132.945 18.4669L132.897 18.4509L132.805 18.7186L132.653 18.6667L132.737 18.4309L132.685 18.411L132.605 18.6587L132.469 18.6107L132.557 18.351L132.497 18.3311L132.394 18.6587L132.841 18.7985L132.945 18.4709V18.4669Z" fill="#919FB5"/>
<path d="M133.009 18.3714L132.841 18.2595L132.917 18.1397C132.961 18.0757 132.945 17.9878 132.881 17.9439C132.881 17.9439 132.869 17.9399 132.869 17.9319C132.841 17.9159 132.805 17.9159 132.777 17.9319C132.737 17.9439 132.705 17.9679 132.685 18.0038L132.581 18.1756L132.973 18.4194L133.005 18.3674L133.009 18.3714ZM132.657 18.1397L132.729 18.0358C132.729 18.0358 132.773 17.9878 132.797 17.9918C132.829 18.0118 132.837 18.0558 132.813 18.0877C132.813 18.0877 132.801 18.0997 132.797 18.1037L132.745 18.1996L132.657 18.1357V18.1397Z" fill="#919FB5"/>
<path d="M132.981 17.7041L133.28 17.9878L133.312 17.9398L133.029 17.6601L133.141 17.5403L133.093 17.5083L132.833 17.784L132.865 17.816L132.977 17.7041H132.981Z" fill="#919FB5"/>
<path d="M133.528 17.7759L133.248 17.4043L133.2 17.4403L133.48 17.8118L133.528 17.7759Z" fill="#919FB5"/>
<path d="M133.912 17.5521L133.884 17.5081L133.632 17.632L133.568 17.5041L133.784 17.3763L133.764 17.3283L133.537 17.4482L133.473 17.3243L133.716 17.1965L133.696 17.1445L133.389 17.3044L133.608 17.7199L133.916 17.5601L133.912 17.5521Z" fill="#919FB5"/>
<path d="M134.019 17.5201L133.955 17.2404V17.1285L134.171 17.4841H134.227L134.275 17.0806V17.1924L134.331 17.4561H134.395L134.299 16.9927H134.207L134.163 17.4122L133.947 17.0566H133.855L133.959 17.5081H134.015L134.027 17.5201H134.019Z" fill="#919FB5"/>
<path d="M134.667 17.4444C134.771 17.4444 134.835 17.3965 134.835 17.3206C134.835 17.2686 134.803 17.2127 134.747 17.2007C134.787 17.1847 134.811 17.1488 134.811 17.1048C134.811 17.0409 134.811 16.985 134.691 16.981H134.487V17.4484H134.667V17.4444ZM134.567 17.0329H134.663C134.735 17.0329 134.755 17.0329 134.755 17.0968C134.755 17.1608 134.723 17.1608 134.659 17.1488H134.555L134.571 17.0289H134.567V17.0329ZM134.663 17.2367C134.711 17.2367 134.759 17.2367 134.759 17.3126C134.759 17.3885 134.759 17.3885 134.663 17.3885H134.543V17.2447H134.663V17.2367Z" fill="#919FB5"/>
<path d="M134.995 17.2966L135.139 17.3406C135.215 17.3406 135.207 17.4045 135.203 17.4445C135.199 17.4804 135.199 17.5204 135.203 17.5563H135.275V17.3246C135.275 17.3246 135.35 17.3246 135.366 17.2327C135.382 17.1408 135.366 17.0929 135.255 17.0729L135.043 17.001L134.919 17.4525H134.983L134.999 17.2926H134.995V17.2966ZM135.071 17.1009L135.207 17.1488C135.207 17.1488 135.283 17.1488 135.255 17.2367C135.227 17.3246 135.203 17.2886 135.159 17.2847L135.023 17.2407L135.071 17.1009Z" fill="#919FB5"/>
<path d="M135.598 17.776L135.625 17.7321L135.39 17.5882L135.462 17.4524L135.681 17.5803L135.717 17.5363L135.49 17.4005L135.558 17.2806L135.793 17.4204L135.829 17.3685L135.53 17.2007L135.298 17.6002L135.594 17.772L135.598 17.776Z" fill="#919FB5"/>
<path d="M135.889 18.0713C135.977 18.1592 136.117 18.1592 136.201 18.0713C136.293 18.0074 136.321 17.8835 136.261 17.7917C136.261 17.7877 136.249 17.7797 136.245 17.7717L136.125 17.6318L135.77 17.9275L135.889 18.0713ZM136.201 17.8116C136.249 17.8756 136.245 17.9355 136.201 18.0154C136.157 18.0953 136.041 18.0793 135.993 18.0154L135.925 17.9275L136.169 17.7157L136.201 17.8076H136.205L136.201 17.8116Z" fill="#919FB5"/>
<path d="M136.206 18.583L136.253 18.563L136.126 18.3113L136.265 18.2394L136.385 18.4711L136.441 18.4431L136.317 18.2154L136.453 18.1435L136.573 18.3912L136.633 18.3712L136.473 18.0596L136.054 18.2713L136.214 18.583H136.206Z" fill="#919FB5"/>
<path d="M136.597 18.879L136.273 18.9229V18.9868L136.725 18.9149V18.871C136.657 18.871 136.649 18.871 136.629 18.7671H136.581L136.597 18.879Z" fill="#919FB5"/>
<path d="M136.636 19.154C136.593 19.142 136.557 19.17 136.545 19.214C136.529 19.162 136.481 19.1221 136.425 19.1221C136.389 19.1221 136.349 19.1381 136.321 19.166C136.301 19.198 136.285 19.2379 136.289 19.2779C136.277 19.3498 136.329 19.4177 136.397 19.4297H136.417C136.465 19.4417 136.521 19.4137 136.537 19.3658C136.549 19.4018 136.585 19.4297 136.628 19.4297C136.684 19.4297 136.752 19.4297 136.752 19.2899C136.764 19.226 136.72 19.166 136.656 19.15H136.636V19.154ZM136.421 19.3698C136.353 19.3698 136.345 19.3178 136.345 19.2779C136.345 19.2379 136.393 19.202 136.433 19.202C136.473 19.202 136.501 19.2299 136.509 19.2659V19.2939C136.509 19.3298 136.489 19.3698 136.445 19.3698H136.425H136.421ZM136.636 19.3698C136.593 19.3658 136.569 19.3258 136.569 19.2819C136.569 19.2379 136.569 19.218 136.636 19.218C136.704 19.218 136.7 19.218 136.692 19.2899C136.68 19.3618 136.66 19.3658 136.636 19.3658V19.3698Z" fill="#919FB5"/>
<path d="M136.569 19.5299V19.5939C136.569 19.5939 136.673 19.5939 136.653 19.7057C136.637 19.8176 136.581 19.7936 136.557 19.7776C136.529 19.7617 136.481 19.7257 136.465 19.6738V19.6018C136.445 19.5299 136.385 19.474 136.309 19.458L136.233 19.7577H136.281L136.345 19.506C136.377 19.5259 136.405 19.5659 136.409 19.6018V19.6538C136.409 19.7297 136.453 19.7936 136.529 19.8096C136.605 19.8256 136.681 19.7776 136.697 19.7017C136.709 19.6138 136.649 19.5419 136.573 19.5299H136.569Z" fill="#919FB5"/>
<path d="M136.477 19.9653L136.433 20.0612L136.138 19.9214V19.9733L136.557 20.1691V20.1252C136.501 20.0772 136.509 20.0492 136.557 19.9693L136.469 19.9533V19.9653H136.477Z" fill="#919FB5"/>
<path d="M133.983 21.6157H134.031L134.375 20.2173H134.327L133.995 21.6157H133.983Z" fill="#919FB5"/>
<path d="M133.936 21.0041H133.983L134.267 20.165H134.219L133.94 20.9841V21.0041H133.936Z" fill="#919FB5"/>
<path d="M133.452 21.5239H133.496L134.195 20.1255H134.147L133.492 21.5239H133.456H133.452Z" fill="#919FB5"/>
<path d="M133.349 21.2961L134.048 20.1055H134.004L133.305 21.2841H133.349V21.2961Z" fill="#919FB5"/>
<path d="M132.896 21.3079H132.94L133.963 20.0054H133.919L132.896 21.3079Z" fill="#919FB5"/>
<path d="M132.965 20.9843L133.868 19.9814L132.957 20.9883H132.961L132.965 20.9843Z" fill="#919FB5"/>
<path d="M133.796 19.9053L132.462 21.0799V21.1239L133.792 19.9492V19.9053H133.796Z" fill="#919FB5"/>
<path d="M133.716 19.8257V19.7817L133.017 20.2772V20.3211L133.716 19.8257Z" fill="#919FB5"/>
<path d="M133.656 19.7335V19.6855L133.16 19.9652V20.0092L133.656 19.7335Z" fill="#919FB5"/>
<path d="M133.068 19.8259V19.8738L133.584 19.6421V19.5981L133.068 19.8259Z" fill="#919FB5"/>
<path d="M133.005 19.6659L133.025 19.7138L133.548 19.546H133.564L133.548 19.498L133.005 19.6659Z" fill="#919FB5"/>
<path d="M133.536 19.4381V19.3901L132.977 19.51V19.5579L133.536 19.4381Z" fill="#919FB5"/>
<path d="M132.933 19.3421V19.39L133.508 19.3381V19.2861L132.933 19.3501V19.3421Z" fill="#919FB5"/>
<path d="M132.933 19.0665L133.5 19.1144V19.0665L132.941 19.0186V19.0665H132.937H132.933Z" fill="#919FB5"/>
<path d="M132.957 18.8902L133.524 19.0141V18.9661L132.957 18.8423V18.8902Z" fill="#919FB5"/>
<path d="M132.997 18.7347L133.536 18.9185V18.8705L132.997 18.6987V18.7427V18.7347Z" fill="#919FB5"/>
<path d="M133.068 18.5269V18.5748L133.6 18.8025V18.7586L133.084 18.5309H133.068V18.5269Z" fill="#919FB5"/>
<path d="M133.121 18.4268L133.629 18.7064V18.6625L133.117 18.3828V18.4268H133.121Z" fill="#919FB5"/>
<path d="M133.213 18.303L133.676 18.6306V18.5986L133.213 18.271V18.303Z" fill="#919FB5"/>
<path d="M133.36 18.1196L133.788 18.4912L133.368 18.1236H133.364L133.36 18.1196Z" fill="#919FB5"/>
<path d="M133.476 17.9995H133.444L133.828 18.4031H133.872L133.488 18.0035H133.476V17.9995Z" fill="#919FB5"/>
<path d="M133.608 17.9036H133.576L133.928 18.3471L133.96 18.3151L133.628 17.8916L133.612 17.9116L133.608 17.9036Z" fill="#919FB5"/>
<path d="M133.764 17.7998H133.72L133.999 18.2753H134.043L133.768 17.8078H133.764V17.7998Z" fill="#919FB5"/>
<path d="M133.916 17.7398H133.868L134.104 18.2353H134.148L133.92 17.7518V17.7358H133.916V17.7398Z" fill="#919FB5"/>
<path d="M134.108 17.6838H134.06L134.243 18.1992H134.291L134.108 17.6918V17.6758V17.6838Z" fill="#919FB5"/>
<path d="M134.243 17.6362H134.195L134.307 18.1796H134.359L134.247 17.6402H134.243V17.6362Z" fill="#919FB5"/>
<path d="M134.427 18.1715H134.475L134.419 17.5962H134.371L134.427 18.1715Z" fill="#919FB5"/>
<path d="M134.571 17.6001H134.523V18.1555H134.571V17.6001Z" fill="#919FB5"/>
<path d="M134.623 18.1678H134.671L134.723 17.6084H134.675L134.619 18.1678H134.623Z" fill="#919FB5"/>
<path d="M134.807 18.195L134.919 17.6396H134.871L134.759 18.195H134.807Z" fill="#919FB5"/>
<path d="M135.063 17.6997H135.015L134.843 18.2151H134.891L135.063 17.7037V17.6997Z" fill="#919FB5"/>
<path d="M135.21 17.7639H135.162L134.935 18.2594H134.979L135.206 17.752H135.21V17.7639Z" fill="#919FB5"/>
<path d="M135.302 17.7998L135.038 18.2793H135.034L135.082 18.3112L135.346 17.8318L135.302 17.7998Z" fill="#919FB5"/>
<path d="M135.118 18.3351H135.162L135.498 17.8916H135.454L135.118 18.3351Z" fill="#919FB5"/>
<path d="M135.206 18.411L135.238 18.447L135.61 18.0435L135.626 18.0315L135.582 17.9995L135.206 18.407V18.411Z" fill="#919FB5"/>
<path d="M135.69 18.1157L135.274 18.4913L135.306 18.5273L135.722 18.1517L135.69 18.1157Z" fill="#919FB5"/>
<path d="M135.366 18.571V18.6029L135.806 18.2793V18.2354L135.366 18.563V18.571Z" fill="#919FB5"/>
<path d="M135.422 18.6507V18.6986L135.905 18.4229V18.375L135.422 18.6507Z" fill="#919FB5"/>
<path d="M135.506 18.755V18.8029L136.013 18.5752V18.5312L135.506 18.747V18.755Z" fill="#919FB5"/>
<path d="M135.506 18.8627V18.9107L136.021 18.7389V18.6909L135.506 18.8627Z" fill="#919FB5"/>
<path d="M135.506 18.9583V19.0063L136.049 18.8824V18.8345L135.506 18.9583Z" fill="#919FB5"/>
<path d="M135.55 19.0625V19.1104L136.089 19.0625V18.9985L135.55 19.0625Z" fill="#919FB5"/>
<path d="M135.562 19.1939H136.117V19.146H135.562V19.1939Z" fill="#919FB5"/>
<path d="M135.55 19.3779V19.4259L136.081 19.5497V19.5018L135.55 19.3779Z" fill="#919FB5"/>
<path d="M136.101 19.3863V19.3383L135.546 19.2744V19.3064L136.085 19.3703L136.101 19.3863Z" fill="#919FB5"/>
<path d="M136.025 19.6975V19.6496L135.51 19.4897V19.5337L136.017 19.7015H136.033H136.029L136.025 19.6975Z" fill="#919FB5"/>
<path d="M135.506 19.5898V19.6378L135.997 19.8535V19.8056L135.506 19.5898Z" fill="#919FB5"/>
<path d="M135.414 19.6978L135.878 19.9734V19.9255L135.434 19.6978H135.414Z" fill="#919FB5"/>
<path d="M135.351 19.8098L136.05 20.3172V20.2733L135.351 19.7778C135.351 19.7778 135.367 19.7978 135.351 19.8098Z" fill="#919FB5"/>
<path d="M135.318 19.8574V19.9014L136.557 21.096V21.0641L135.271 19.8934L135.318 19.8614V19.8574Z" fill="#919FB5"/>
<path d="M135.206 19.9736L136.073 20.9765H136.117L135.25 19.9736H135.206Z" fill="#919FB5"/>
<path d="M135.131 20.0376L136.11 21.3402L136.154 21.3082L135.167 20.0137L135.135 20.0416H135.131V20.0376Z" fill="#919FB5"/>
<path d="M135.022 20.0973L135.722 21.2679H135.766L135.066 20.0933H135.022V20.0973Z" fill="#919FB5"/>
<path d="M134.931 20.1494L135.562 21.5478H135.61L134.975 20.1494H134.931Z" fill="#919FB5"/>
<path d="M134.807 20.181L135.07 21.0001H135.118L134.839 20.165L134.807 20.181Z" fill="#919FB5"/>
<path d="M134.723 20.209L135.05 21.6074H135.098L134.771 20.209H134.723Z" fill="#919FB5"/>
<path d="M129.804 29.4946C129.804 29.4946 129.645 29.6824 129.736 29.8382C129.824 29.9461 129.984 29.9621 130.092 29.8742C130.108 29.8622 130.12 29.8542 130.132 29.8382C130.132 29.8382 129.748 29.8542 129.808 29.4946H129.804Z" fill="#919FB5"/>
<path d="M139.002 29.8461C139.09 29.9539 139.25 29.9699 139.358 29.882C139.374 29.87 139.386 29.862 139.394 29.8461C139.485 29.6902 139.326 29.5024 139.326 29.5024C139.354 29.854 139.002 29.8461 139.002 29.8461Z" fill="#919FB5"/>
<path d="M131.243 29.3106L131.155 29.2627L130.951 29.6063L131.039 29.6543C131.119 29.7142 131.235 29.6982 131.291 29.6183C131.295 29.6063 131.303 29.5983 131.307 29.5863C131.367 29.5064 131.351 29.3906 131.267 29.3346C131.255 29.3306 131.247 29.3226 131.235 29.3186H131.239L131.243 29.3106Z" fill="#919FB5"/>
<path d="M131.91 29.6621C131.814 29.6142 131.694 29.6581 131.646 29.754V29.766C131.598 29.8699 131.634 29.9858 131.738 30.0417C131.842 30.0896 131.966 30.0417 132.014 29.9458C132.061 29.8499 132.014 29.7181 131.918 29.6701H131.914L131.91 29.6621Z" fill="#919FB5"/>
<path d="M134.244 30.2658C134.136 30.2618 134.044 30.3417 134.036 30.4496C134.036 30.5614 134.124 30.6493 134.232 30.6493C134.34 30.6493 134.424 30.5614 134.424 30.4536C134.424 30.3457 134.344 30.2698 134.24 30.2658H134.244Z" fill="#919FB5"/>
<path d="M136.126 30.2897H136.014L136.058 30.4615H136.177C136.221 30.4496 136.253 30.4096 136.241 30.3657V30.3497C136.229 30.3057 136.189 30.2738 136.146 30.2857H136.13L136.126 30.2897Z" fill="#919FB5"/>
<path d="M136.166 30.1301C136.154 30.0861 136.11 30.0661 136.07 30.0781H135.966L136.01 30.234H136.114C136.15 30.234 136.178 30.198 136.174 30.158C136.174 30.154 136.174 30.1421 136.17 30.1381L136.166 30.1301Z" fill="#919FB5"/>
<path d="M136.909 29.8105H136.753L136.825 29.9943L136.921 29.9504C136.969 29.9344 136.997 29.8864 136.981 29.8385V29.8265C136.961 29.8105 136.937 29.8065 136.913 29.8105H136.909Z" fill="#919FB5"/>
<path d="M137.6 29.5622V29.734L137.743 29.658L137.6 29.5382V29.4902V29.5622Z" fill="#919FB5"/>
<path d="M139.098 29.5984L138.93 29.5345C139.05 29.4905 139.174 29.4826 139.298 29.5025L139.094 29.3187C138.675 28.9432 138.067 28.8593 137.564 29.123C135.718 30.2697 133.381 30.2697 131.535 29.123C131.035 28.8633 130.424 28.9392 130.012 29.3187L129.809 29.5025C129.932 29.4826 130.056 29.4905 130.176 29.5345L130.008 29.5984C130.224 29.6863 130.132 29.8421 130.132 29.8421L130.392 29.6104C130.783 29.7782 131.167 29.966 131.539 30.1858C132.458 30.7012 133.496 30.9649 134.555 30.9489C135.61 30.9689 136.649 30.7132 137.572 30.1937C137.943 29.978 138.327 29.7862 138.718 29.6184L138.982 29.8501C138.982 29.8501 138.89 29.6823 139.106 29.5984H139.098ZM131.007 29.7103L130.851 29.6224L131.127 29.1589L131.283 29.2508C131.411 29.3147 131.467 29.4786 131.403 29.6064C131.339 29.7343 131.175 29.7902 131.047 29.7263C131.035 29.7223 131.027 29.7143 131.015 29.7063H131.011L131.007 29.7103ZM131.383 29.9261H131.315L131.567 29.4586L131.635 29.4905L131.383 29.9261ZM131.706 30.0939C131.571 30.0299 131.507 29.8661 131.571 29.7263C131.635 29.5864 131.798 29.5265 131.938 29.5904C132.074 29.6544 132.138 29.8182 132.074 29.95C132.014 30.0859 131.858 30.1498 131.722 30.0899C131.722 30.0899 131.71 30.0899 131.706 30.0859V30.0939ZM132.45 29.93C132.43 29.8941 132.394 29.8661 132.358 29.8421C132.314 29.8222 132.266 29.8302 132.246 29.8741V29.8861C132.202 29.982 132.458 30.0539 132.39 30.2137C132.354 30.2896 132.262 30.3256 132.178 30.2896C132.11 30.2777 132.05 30.2417 132.01 30.1858L132.066 30.1538C132.086 30.2017 132.13 30.2417 132.178 30.2577C132.222 30.2777 132.27 30.2577 132.29 30.2137C132.334 30.1098 132.078 30.0419 132.146 29.8861C132.178 29.8102 132.27 29.7742 132.35 29.8062H132.354C132.41 29.8222 132.45 29.8581 132.474 29.9101L132.454 29.9261H132.45V29.93ZM132.889 30.5214C132.781 30.5014 132.713 30.3975 132.733 30.2936V30.2777L132.825 29.95H132.897L132.805 30.2777C132.805 30.3536 132.857 30.4215 132.933 30.4295C132.993 30.4295 133.045 30.4015 133.069 30.3496L133.157 30.0219H133.233L133.141 30.3576C133.137 30.4614 133.045 30.5414 132.941 30.5334C132.925 30.5334 132.901 30.5334 132.885 30.5214H132.889ZM133.644 30.6772H133.576L133.408 30.2777V30.1858V30.2617L133.345 30.6053H133.277L133.369 30.0819H133.444L133.612 30.4654L133.644 30.5533V30.4774L133.708 30.1338H133.776L133.64 30.6772H133.644ZM133.848 30.6772H133.772L133.836 30.1458H133.912L133.848 30.6772ZM134.216 30.7132C134.072 30.7132 133.952 30.5893 133.956 30.4455V30.4295C133.96 30.2777 134.092 30.1658 134.24 30.1698C134.383 30.1698 134.503 30.2936 134.499 30.4375V30.4535C134.511 30.5973 134.395 30.7291 134.248 30.7331H134.212V30.7132H134.216ZM134.915 30.7132L134.663 30.3775L134.619 30.3016V30.7251H134.543V30.1937H134.619L134.863 30.5294L134.911 30.6013V30.1818H134.987V30.7132H134.911H134.915ZM135.41 30.6612L135.354 30.1858H135.43L135.502 30.6492L135.738 30.6173V30.6812L135.41 30.6652V30.6612ZM135.782 30.5973L135.678 30.0739H135.75L135.862 30.5893H135.782V30.5973ZM136.165 30.5134L135.982 30.5613L135.842 30.0459L136.026 29.998C136.101 29.97 136.177 30.01 136.205 30.0859V30.0979C136.225 30.1338 136.225 30.1858 136.205 30.2217C136.265 30.2217 136.317 30.2657 136.325 30.3256C136.345 30.4295 136.281 30.4974 136.205 30.5294L136.161 30.5134H136.165ZM136.429 30.4375L136.261 29.93L136.557 29.8342V29.8981L136.329 29.97L136.385 30.1298L136.569 30.0659V30.1298L136.397 30.1937L136.445 30.3536L136.681 30.2777V30.3416L136.429 30.4375ZM137.128 30.1937L136.944 30.0379L136.841 30.0819L136.917 30.2777H136.849L136.653 29.7862L136.797 29.7223H136.893C136.956 29.7223 137.012 29.7662 137.032 29.8262C137.064 29.8781 137.064 29.946 137.032 29.994L137.216 30.1498L137.124 30.1937H137.128ZM137.388 30.0739L137.196 29.6544L137.028 29.7303V29.6783L137.4 29.4945V29.5465L137.232 29.6224L137.436 30.0459L137.392 30.0659H137.388V30.0739ZM137.919 29.8022L137.8 29.6903L137.628 29.7862V29.946H137.556L137.472 29.3867L137.544 29.3547L137.963 29.7303L137.919 29.8022ZM138.195 29.6384L138.051 29.7303L137.772 29.2828L137.915 29.1869C138.027 29.107 138.183 29.127 138.267 29.2388C138.271 29.2508 138.279 29.2588 138.283 29.2708C138.371 29.3747 138.359 29.5305 138.255 29.6144C138.235 29.6304 138.211 29.6464 138.191 29.6504V29.6344H138.195V29.6384Z" fill="#919FB5"/>
<path d="M137.939 29.2625L137.852 29.3105L138.067 29.6541L138.155 29.6021C138.243 29.5542 138.275 29.4463 138.231 29.3544C138.231 29.3424 138.219 29.3384 138.215 29.3265C138.171 29.2346 138.059 29.2026 137.971 29.2465C137.959 29.2465 137.951 29.2585 137.943 29.2625H137.939Z" fill="#919FB5"/>
<path d="M176.02 23.5174H175.752C175.64 22.5146 175.368 22.4027 174.789 22.4027H172.4V25.4153C172.4 26.0665 172.644 26.1904 173.163 26.1904H175.336C176.327 26.1904 176.623 25.8068 176.979 24.5922H177.23L177.003 26.6978H169.495V26.4301H169.895C171.025 26.4301 171.225 26.1185 171.225 25.2714V19.3022C171.225 18.5111 171.041 18.1715 170.094 18.1715H169.783V17.9038H176.571L176.683 19.8696H176.431C176.247 18.6669 175.892 18.4112 175.388 18.4112H172.404V21.8913H174.933C175.444 21.8913 175.68 21.6476 175.752 20.8285H176.02V23.5174Z" fill="#919FB5"/>
<path d="M184.462 26.6978H178.142V26.4301H178.609C179.26 26.4301 179.496 26.2184 179.496 25.4992V19.2343C179.496 18.4871 179.268 18.1715 178.381 18.1715H178.182V17.9038H182.353V18.1715H181.829C180.91 18.1715 180.671 18.2674 180.671 19.1464V25.667C180.671 26.0506 180.827 26.1904 181.234 26.1904H183.312C184.147 26.1904 184.399 25.8668 185.293 24.6322H185.545L184.458 26.6938H184.454L184.462 26.6978Z" fill="#919FB5"/>
<path d="M190.484 24.5478C190.779 25.8064 191.77 26.5415 192.873 26.5415C193.82 26.5415 194.823 25.9902 194.823 24.8714C194.823 22.8337 190.284 22.2105 190.284 19.7373C190.284 18.5626 191.363 17.6836 192.797 17.6836C193.988 17.6836 194.224 18.0392 194.719 18.0392C194.831 18.0392 194.891 18.0112 194.971 17.8993H195.198L195.442 19.6933H195.198C194.799 18.6745 193.896 18.0232 192.921 18.0232C191.946 18.0232 191.339 18.5626 191.339 19.3537C191.339 21.3634 195.878 21.9028 195.878 24.5038C195.878 25.8863 194.651 26.9211 192.993 26.9211C192.218 26.9211 191.227 26.5375 191.027 26.5375C190.899 26.5375 190.799 26.6095 190.743 26.6934H190.5L190.204 24.5438H190.484V24.5478Z" fill="#919FB5"/>
<path d="M199.578 22.7938L198.759 25.0113C198.663 25.279 198.475 25.7065 198.475 25.8983C198.475 26.2818 198.842 26.4217 199.622 26.4217H199.849V26.6894H196.581V26.4217C197.5 26.4057 197.66 26.2499 198.111 25.0233L200.684 17.9952L200.557 17.6836H201.783L204.74 25.5347C205.023 26.2818 205.323 26.4217 206.026 26.4217V26.6894H202.139V26.4217H202.506C203.313 26.4217 203.609 26.3338 203.609 25.9422C203.609 25.7145 203.513 25.5067 203.453 25.3589L202.506 22.7858H199.578H199.582L199.578 22.7938ZM201.02 18.8782L199.817 22.1745H202.263L201.02 18.8782Z" fill="#919FB5"/>
<path d="M212.69 26.6978H206.369V26.4301H206.837C207.488 26.4301 207.724 26.2184 207.724 25.4992V19.2343C207.724 18.4871 207.496 18.1715 206.609 18.1715H206.409V17.9038H210.58V18.1715H210.057C209.138 18.1715 208.898 18.2674 208.898 19.1464V25.667C208.898 26.0506 209.054 26.1904 209.466 26.1904H211.543C212.378 26.1904 212.63 25.8668 213.525 24.6322H213.777L212.69 26.6938H212.686L212.69 26.6978Z" fill="#919FB5"/>
<path d="M216.993 26.9253L213.924 19.27C213.569 18.383 213.401 18.1673 212.542 18.1673V17.8996H216.43V18.1673C215.127 18.1953 214.819 18.4909 215.087 19.1422L217.632 25.475L219.866 19.6296C220.021 19.2301 220.109 18.9504 220.109 18.7506C220.109 18.3271 219.754 18.1593 218.795 18.1593V17.8916H222.075V18.1593C221.336 18.1593 220.956 18.4989 220.617 19.3779L217.704 26.9173H216.993V26.9253Z" fill="#919FB5"/>
<path d="M223.845 22.7938L223.026 25.0113C222.93 25.279 222.742 25.7065 222.742 25.8983C222.742 26.2818 223.11 26.4217 223.889 26.4217H224.117V26.6894H220.849V26.4217C221.768 26.4057 221.927 26.2499 222.379 25.0233L224.952 17.9952L224.824 17.6836H226.051L229.007 25.5347C229.291 26.2818 229.591 26.4217 230.294 26.4217V26.6894H226.406V26.4217H226.774C227.581 26.4217 227.877 26.3338 227.877 25.9422C227.877 25.7145 227.781 25.5067 227.721 25.3589L226.774 22.7858H223.845H223.849L223.845 22.7938ZM225.288 18.8782L224.085 22.1745H226.53L225.288 18.8782Z" fill="#919FB5"/>
<path d="M231.933 19.3143C231.933 18.3914 231.689 18.1676 230.854 18.1676H230.57V17.8999C231.094 17.8719 231.789 17.84 232.564 17.812C233.339 17.784 234.206 17.7681 234.938 17.7681C238.669 17.7681 240.319 19.6659 240.319 21.9953C240.319 24.1328 238.665 26.6899 235.085 26.6899H230.562V26.4222H230.806C231.569 26.4222 231.925 26.2105 231.925 25.3874V19.3063H231.929L231.933 19.3143ZM233.108 25.6471C233.108 26.2304 233.152 26.4222 234.266 26.4222C236.16 26.4222 236.951 26.1545 237.83 25.2755C238.354 24.7641 239.005 23.6774 239.005 22.223C239.005 21.1762 238.709 20.0135 237.874 19.1785C237.223 18.5272 236.22 18.0318 234.238 18.0318C233.655 18.0318 233.275 18.0757 233.108 18.0837V25.6471Z" fill="#919FB5"/>
<path d="M246.96 26.9255C244.187 26.9255 241.857 25.1435 241.857 22.4985C241.857 19.6817 244.023 17.688 247.032 17.688C249.701 17.688 251.994 19.5139 251.994 22.063C251.994 24.9158 249.704 26.9255 246.96 26.9255ZM246.664 18.0436C244.179 18.0436 243.188 20.3649 243.188 22.063C243.188 24.708 244.982 26.5779 247.259 26.5779C249.537 26.5779 250.667 24.5402 250.667 22.5345C250.667 19.9055 248.997 18.0516 246.668 18.0516L246.664 18.0436Z" fill="#919FB5"/>
<path d="M255.558 25.3674C255.558 26.2185 255.897 26.4302 256.689 26.4302H257.012V26.6979H253.013V26.4302H253.256C254.091 26.4302 254.387 26.2025 254.387 25.2556V19.2983C254.387 18.4193 254.143 18.1676 253.324 18.1676H253.013V17.8999C253.352 17.8999 254.215 17.84 254.795 17.812C255.378 17.784 255.658 17.7681 256.577 17.7681C259.194 17.7681 260.368 18.8468 260.368 20.2852C260.368 21.348 259.645 22.235 258.49 22.5746C259.014 22.9821 259.437 23.3817 260.101 24.0449L261.215 25.1637C262.05 25.9987 262.909 26.5221 264 26.59V26.8418C261.523 26.9536 260.888 26.4182 259.633 25.1597L258.702 24.2287C258.079 23.6054 257.588 23.1939 257.244 22.9702C256.888 22.9861 256.661 22.9981 256.281 22.9981C255.969 22.9981 255.786 22.9821 255.562 22.9702V25.3634H255.566L255.558 25.3674ZM255.558 22.7065C255.897 22.7504 256.109 22.7344 256.437 22.7344C258.007 22.7344 259.038 22.0712 259.038 20.3771C259.038 19.0626 258.447 18.0438 256.265 18.0438C255.997 18.0438 255.814 18.0438 255.558 18.0717V22.7104V22.7065Z" fill="#919FB5"/>
</svg>
