<svg width="129" height="48" viewBox="0 0 129 48" fill="none" xmlns="http://www.w3.org/2000/svg">
<path d="M0.567609 37.7559C0.567609 35.2719 2.40361 32.9139 5.73361 32.9139C8.25361 32.9139 9.42361 34.3179 9.42361 34.3179L8.10961 36.4059C8.10961 36.4059 7.20961 35.5059 5.93161 35.5059C4.45561 35.5059 3.71761 36.6219 3.71761 37.7199C3.71761 38.8179 4.47361 40.0239 6.03961 40.0239C7.33561 40.0239 8.57761 38.9079 8.57761 38.9079L9.71161 41.0859C9.71161 41.0859 8.32561 42.6159 5.73361 42.6159C2.42161 42.6159 0.567609 40.3119 0.567609 37.7559ZM10.4817 37.7919C10.4817 34.8759 12.8217 32.9139 15.7197 32.9139C18.6537 32.9139 20.9937 34.8759 20.9937 37.7919C20.9937 40.6899 18.6537 42.6159 15.7377 42.6159C12.8217 42.6159 10.4817 40.6899 10.4817 37.7919ZM13.6317 37.7919C13.6317 39.1779 14.6037 40.0239 15.7377 40.0239C16.8717 40.0239 17.8437 39.1779 17.8437 37.7919C17.8437 36.3879 16.8717 35.5059 15.7377 35.5059C14.6037 35.5059 13.6317 36.3879 13.6317 37.7919ZM22.483 38.9799V29.5299H25.597V38.5659C25.597 39.4479 25.759 39.7539 26.461 39.7539C26.659 39.7539 26.839 39.7359 26.839 39.7359V42.4359C26.839 42.4359 26.407 42.4899 25.903 42.4899C24.247 42.4899 22.483 42.0939 22.483 38.9799ZM27.7434 37.7919C27.7434 34.8759 30.0834 32.9139 32.9814 32.9139C35.9154 32.9139 38.2554 34.8759 38.2554 37.7919C38.2554 40.6899 35.9154 42.6159 32.9994 42.6159C30.0834 42.6159 27.7434 40.6899 27.7434 37.7919ZM30.8934 37.7919C30.8934 39.1779 31.8654 40.0239 32.9994 40.0239C34.1334 40.0239 35.1054 39.1779 35.1054 37.7919C35.1054 36.3879 34.1334 35.5059 32.9994 35.5059C31.8654 35.5059 30.8934 36.3879 30.8934 37.7919ZM39.1868 37.7559C39.1868 35.2719 41.0228 32.9139 44.3528 32.9139C46.8728 32.9139 48.0428 34.3179 48.0428 34.3179L46.7288 36.4059C46.7288 36.4059 45.8288 35.5059 44.5508 35.5059C43.0748 35.5059 42.3368 36.6219 42.3368 37.7199C42.3368 38.8179 43.0928 40.0239 44.6588 40.0239C45.9548 40.0239 47.1968 38.9079 47.1968 38.9079L48.3308 41.0859C48.3308 41.0859 46.9448 42.6159 44.3528 42.6159C41.0408 42.6159 39.1868 40.3119 39.1868 37.7559ZM49.0828 39.6279C49.0828 36.9279 53.0248 36.6219 54.4648 36.6219H54.5908V36.4599C54.5908 35.6859 53.9968 35.4339 53.2228 35.4339C52.0528 35.4339 50.7208 36.3159 50.7208 36.3159L49.6408 34.1199C49.6408 34.1199 51.2428 32.9139 53.5288 32.9139C56.1388 32.9139 57.7048 34.3359 57.7048 36.6939V42.3999H54.8608V41.8419C54.8608 41.5359 54.8968 41.2659 54.8968 41.2659H54.8608C54.8608 41.2659 54.1768 42.6159 52.2328 42.6159C50.5048 42.6159 49.0828 41.4639 49.0828 39.6279ZM52.2148 39.4659C52.2148 39.8979 52.4848 40.2399 53.0968 40.2399C53.9068 40.2399 54.6268 39.3579 54.6268 38.6019V38.4039H54.3388C53.3488 38.4039 52.2148 38.6919 52.2148 39.4659ZM59.8571 42.3999V33.1299H62.8451V34.6959C62.8451 35.0019 62.8091 35.2719 62.8091 35.2719H62.8451C63.2411 34.0119 64.4111 32.9679 65.7971 32.9679C65.9771 32.9679 66.1571 33.0039 66.1571 33.0039V36.0639C66.1571 36.0639 65.9051 36.0099 65.5271 36.0099C64.7891 36.0099 63.5831 36.2439 63.1331 37.6299C63.0251 37.9719 62.9711 38.3859 62.9711 38.8899V42.3999H59.8571ZM71.0387 37.7559C71.0387 35.0379 72.8747 32.9139 75.8627 32.9139C78.5987 32.9139 80.1467 34.8219 80.1467 37.3959C80.1467 37.7019 80.0747 38.3679 80.0747 38.3679H74.2247C74.4587 39.5019 75.3947 40.0239 76.3847 40.0239C77.7167 40.0239 78.9407 39.0879 78.9407 39.0879L80.0927 41.2659C80.0927 41.2659 78.5987 42.6159 76.1327 42.6159C72.8207 42.6159 71.0387 40.2219 71.0387 37.7559ZM74.2967 36.5859H77.0147C77.0147 35.8839 76.5287 35.2539 75.7907 35.2539C74.8907 35.2539 74.4587 35.9019 74.2967 36.5859ZM81.8473 42.3999V33.1299H84.8353V33.9399C84.8353 34.2459 84.7993 34.5159 84.7993 34.5159H84.8353C85.2673 33.7959 86.1493 32.9139 87.7873 32.9139C89.6593 32.9139 91.1173 33.7779 91.1173 36.3879V42.3999H88.0033V36.9639C88.0033 36.0999 87.6613 35.7399 86.9773 35.7399C86.0053 35.7399 85.4113 36.2799 85.1413 37.0719C85.0153 37.4319 84.9613 37.8459 84.9613 38.2959V42.3999H81.8473ZM93.1647 38.9799V29.5299H96.2787V38.5659C96.2787 39.4479 96.4407 39.7539 97.1427 39.7539C97.3407 39.7539 97.5207 39.7359 97.5207 39.7359V42.4359C97.5207 42.4359 97.0887 42.4899 96.5847 42.4899C94.9287 42.4899 93.1647 42.0939 93.1647 38.9799ZM98.407 39.6279C98.407 36.9279 102.349 36.6219 103.789 36.6219H103.915V36.4599C103.915 35.6859 103.321 35.4339 102.547 35.4339C101.377 35.4339 100.045 36.3159 100.045 36.3159L98.965 34.1199C98.965 34.1199 100.567 32.9139 102.853 32.9139C105.463 32.9139 107.029 34.3359 107.029 36.6939V42.3999H104.185V41.8419C104.185 41.5359 104.221 41.2659 104.221 41.2659H104.185C104.185 41.2659 103.501 42.6159 101.557 42.6159C99.829 42.6159 98.407 41.4639 98.407 39.6279ZM101.539 39.4659C101.539 39.8979 101.809 40.2399 102.421 40.2399C103.231 40.2399 103.951 39.3579 103.951 38.6019V38.4039H103.663C102.673 38.4039 101.539 38.6919 101.539 39.4659ZM108.497 37.7559C108.497 35.2719 110.333 32.9139 113.663 32.9139C116.183 32.9139 117.353 34.3179 117.353 34.3179L116.039 36.4059C116.039 36.4059 115.139 35.5059 113.861 35.5059C112.385 35.5059 111.647 36.6219 111.647 37.7199C111.647 38.8179 112.403 40.0239 113.969 40.0239C115.265 40.0239 116.507 38.9079 116.507 38.9079L117.641 41.0859C117.641 41.0859 116.255 42.6159 113.663 42.6159C110.351 42.6159 108.497 40.3119 108.497 37.7559ZM118.429 37.7559C118.429 35.0379 120.265 32.9139 123.253 32.9139C125.989 32.9139 127.537 34.8219 127.537 37.3959C127.537 37.7019 127.465 38.3679 127.465 38.3679H121.615C121.849 39.5019 122.785 40.0239 123.775 40.0239C125.107 40.0239 126.331 39.0879 126.331 39.0879L127.483 41.2659C127.483 41.2659 125.989 42.6159 123.523 42.6159C120.211 42.6159 118.429 40.2219 118.429 37.7559ZM121.687 36.5859H124.405C124.405 35.8839 123.919 35.2539 123.181 35.2539C122.281 35.2539 121.849 35.9019 121.687 36.5859Z" fill="#2B58C6"/>
<path d="M69.5996 10.7997L76.9118 15.6745C77.0172 15.7446 77.1397 15.7849 77.2662 15.7909C77.3926 15.797 77.5184 15.7686 77.63 15.7088C77.7416 15.6491 77.835 15.5602 77.9001 15.4515C77.9651 15.3429 77.9995 15.2187 77.9996 15.0921V3.61769C77.9996 3.49452 77.9672 3.37352 77.9055 3.26691C77.8438 3.16031 77.7551 3.07186 77.6483 3.01051C77.5415 2.94915 77.4204 2.91707 77.2972 2.91748C77.1741 2.9179 77.0532 2.95081 76.9468 3.01289L69.5996 7.29969" stroke="#2B58C6" stroke-width="2" stroke-linecap="round" stroke-linejoin="round"/>
<path d="M66.8 1H52.8C51.2536 1 50 2.2536 50 3.8V15C50 16.5464 51.2536 17.8 52.8 17.8H66.8C68.3464 17.8 69.6 16.5464 69.6 15V3.8C69.6 2.2536 68.3464 1 66.8 1Z" stroke="#2B58C6" stroke-width="2" stroke-linecap="round" stroke-linejoin="round"/>
</svg>
