<svg width="140" height="21" viewBox="0 0 140 21" fill="none" xmlns="http://www.w3.org/2000/svg">
<path fill-rule="evenodd" clip-rule="evenodd" d="M19.3532 10.6014C19.3532 5.25768 15.0203 0.924805 9.67661 0.924805C4.33288 0.924805 0 5.25768 0 10.6014C0 15.4311 3.53801 19.4344 8.16464 20.161V13.3994H5.70704V10.6014H8.16464V8.46954C8.16464 6.04477 9.60965 4.7043 11.8197 4.7043C12.8785 4.7043 13.9862 4.89351 13.9862 4.89351V7.27508H12.7654C11.564 7.27508 11.1882 8.0207 11.1882 8.78705V10.6014H13.8717L13.4431 13.3994H11.1886V20.1618C15.8152 19.4356 19.3532 15.4324 19.3532 10.6014Z" fill="#919FB5"/>
<path d="M71.9897 2.51503C73.0432 2.51818 74.0528 2.93811 74.7978 3.68311C75.5428 4.42811 75.9627 5.43764 75.9659 6.49123V14.4428C75.9627 15.4964 75.5428 16.5059 74.7978 17.2509C74.0528 17.9959 73.0432 18.4158 71.9897 18.419H64.0381C62.9845 18.4158 61.975 17.9959 61.23 17.2509C60.485 16.5059 60.0651 15.4964 60.0619 14.4428V6.49123C60.0651 5.43764 60.485 4.42811 61.23 3.68311C61.975 2.93811 62.9845 2.51818 64.0381 2.51503H71.9897ZM71.9897 0.924805H64.0381C60.9765 0.924805 58.4717 3.42963 58.4717 6.49123V14.4428C58.4717 17.5044 60.9765 20.0092 64.0381 20.0092H71.9897C75.0513 20.0092 77.5561 17.5044 77.5561 14.4428V6.49123C77.5561 3.42963 75.0513 0.924805 71.9897 0.924805Z" fill="#919FB5"/>
<path d="M73.1828 6.49151C72.9469 6.49151 72.7163 6.42155 72.5201 6.29049C72.324 6.15942 72.1711 5.97314 72.0808 5.75519C71.9906 5.53724 71.9669 5.29741 72.013 5.06603C72.059 4.83466 72.1726 4.62213 72.3394 4.45531C72.5062 4.2885 72.7187 4.1749 72.9501 4.12888C73.1815 4.08285 73.4213 4.10647 73.6393 4.19675C73.8572 4.28703 74.0435 4.43991 74.1746 4.63606C74.3056 4.83221 74.3756 5.06282 74.3756 5.29873C74.3759 5.45546 74.3453 5.61072 74.2855 5.75559C74.2257 5.90045 74.1378 6.03208 74.027 6.1429C73.9162 6.25373 73.7845 6.34158 73.6397 6.4014C73.4948 6.46122 73.3395 6.49184 73.1828 6.49151ZM68.0143 7.28641C68.6434 7.28641 69.2584 7.47296 69.7815 7.82248C70.3046 8.172 70.7123 8.66878 70.953 9.25001C71.1938 9.83124 71.2568 10.4708 71.134 11.0878C71.0113 11.7049 70.7083 12.2716 70.2635 12.7165C69.8186 13.1614 69.2519 13.4643 68.6348 13.587C68.0178 13.7098 67.3782 13.6468 66.797 13.406C66.2158 13.1653 65.719 12.7576 65.3695 12.2345C65.0199 11.7114 64.8334 11.0964 64.8334 10.4673C64.8343 9.62394 65.1697 8.81539 65.766 8.21906C66.3624 7.62272 67.1709 7.28731 68.0143 7.28641ZM68.0143 5.69618C67.0706 5.69618 66.1482 5.976 65.3636 6.50026C64.579 7.02451 63.9675 7.76966 63.6063 8.64146C63.2452 9.51326 63.1507 10.4726 63.3348 11.3981C63.5189 12.3236 63.9733 13.1737 64.6406 13.841C65.3078 14.5082 66.158 14.9626 67.0835 15.1467C68.009 15.3308 68.9683 15.2363 69.8401 14.8752C70.7119 14.5141 71.457 13.9026 71.9813 13.118C72.5055 12.3334 72.7854 11.4109 72.7854 10.4673C72.7854 9.20191 72.2827 7.98836 71.3879 7.0936C70.4932 6.19885 69.2796 5.69618 68.0143 5.69618Z" fill="#919FB5"/>
<path d="M48.3205 20.2282C48.2991 20.2282 48.2777 20.2272 48.2562 20.2272C46.4245 20.2272 44.5938 20.2272 42.7621 20.2272C42.7151 20.2272 42.6866 20.2159 42.659 20.1741C41.5665 18.5813 40.472 16.9905 39.3785 15.3998C38.7781 14.5258 38.1767 13.6518 37.5764 12.7778C37.5672 12.7645 37.557 12.7523 37.5437 12.7339C37.5049 12.7788 37.4681 12.8197 37.4324 12.8615C35.5006 15.1068 33.5699 17.352 31.6381 19.5962C31.4666 19.7953 31.2961 19.9944 31.1235 20.1914C31.1082 20.2088 31.0806 20.2241 31.0592 20.2241C30.5283 20.2262 29.9963 20.2251 29.4654 20.2251C29.4572 20.2251 29.4501 20.2251 29.4307 20.2231C31.8913 17.3632 34.3479 14.5095 36.8045 11.6547C36.6819 11.476 36.5615 11.3004 36.441 11.1248C35.8131 10.212 35.1862 9.29818 34.5582 8.38539C33.8456 7.34804 33.1319 6.31068 32.4192 5.27333C31.6626 4.17267 30.906 3.07099 30.1495 1.97033C29.9095 1.62216 29.6706 1.27297 29.4307 0.924805C31.3063 0.924805 33.1819 0.924805 35.0585 0.924805C35.0677 0.94012 35.0769 0.955435 35.0871 0.970751C35.7069 1.87333 36.3276 2.77591 36.9474 3.67747C37.8704 5.02011 38.7934 6.36275 39.7154 7.70539C39.7869 7.80954 39.8583 7.91266 39.9318 8.01987C39.9635 7.98413 39.9911 7.95146 40.0197 7.91981C41.4858 6.21573 42.953 4.51062 44.4192 2.80654C44.9583 2.17964 45.4984 1.55171 46.0375 0.924805C46.592 0.924805 47.1464 0.924805 47.6998 0.924805C47.5721 1.07489 47.4455 1.22498 47.3179 1.37405C45.8527 3.07711 44.3866 4.78119 42.9214 6.48425C42.1832 7.34293 41.444 8.20161 40.7048 9.05926C40.6813 9.08683 40.6751 9.10419 40.6976 9.13788C40.9753 9.53914 41.252 9.94245 41.5287 10.3447C42.5988 11.9028 43.6698 13.4599 44.7398 15.0179C45.8558 16.6414 46.9718 18.2658 48.0877 19.8892C48.1633 19.9995 48.2419 20.1087 48.3195 20.218V20.2282H48.3205ZM46.0365 19.0285C46.0222 19.006 46.0151 18.9938 46.0059 18.9815C44.9379 17.4541 43.8699 15.9266 42.8019 14.3992C41.5165 12.5614 40.231 10.7235 38.9466 8.88569C37.3936 6.66497 35.8406 4.44426 34.2887 2.22252C34.2662 2.19087 34.2448 2.1776 34.205 2.1776C33.3902 2.17862 32.5754 2.1776 31.7606 2.1776C31.7433 2.1776 31.7259 2.1776 31.6994 2.1776C31.7167 2.20312 31.7269 2.21946 31.7382 2.23477C31.9689 2.56558 32.2007 2.89537 32.4314 3.22618C33.7465 5.1069 35.0616 6.98762 36.3767 8.86936C37.6458 10.6847 38.9149 12.4991 40.184 14.3145C41.2724 15.8715 42.3619 17.4286 43.4503 18.9856C43.4717 19.0162 43.4921 19.0285 43.5299 19.0285C44.3467 19.0275 45.1636 19.0285 45.9793 19.0285H46.0365Z" fill="#919FB5"/>
<path d="M112.737 5.1946C112.737 2.99408 111.119 1.22389 109.119 1.22389C106.41 1.09724 103.647 1.04834 100.823 1.04834H99.9429C97.1263 1.04834 94.3585 1.09724 91.6494 1.22438C89.6543 1.22438 88.0357 3.00435 88.0357 5.20487C87.9135 6.94523 87.8616 8.68608 87.8646 10.4269C87.8597 12.1678 87.9151 13.9103 88.0308 15.6544C88.0308 17.8549 89.6494 19.6398 91.6446 19.6398C94.4906 19.7718 97.4099 19.8305 100.378 19.8256C103.351 19.8354 106.262 19.7734 109.112 19.6398C111.112 19.6398 112.73 17.8549 112.73 15.6544C112.848 13.9086 112.902 12.1678 112.897 10.422C112.908 8.68119 112.855 6.93871 112.737 5.1946ZM97.9869 15.2241V5.61514L105.077 10.4172L97.9869 15.2241Z" fill="#BFC9D9"/>
<path d="M137.387 5.17084C137.261 5.10565 137.138 5.03418 137.019 4.9567C136.673 4.72795 136.356 4.4584 136.074 4.15387C135.37 3.34754 135.106 2.52953 135.009 1.9568H135.013C134.932 1.48141 134.966 1.17383 134.971 1.17383H131.761V13.5854C131.761 13.752 131.761 13.9167 131.754 14.0794C131.754 14.0997 131.752 14.1184 131.751 14.1402C131.751 14.1491 131.751 14.1585 131.749 14.1678V14.1748C131.715 14.6202 131.573 15.0503 131.333 15.4276C131.094 15.8048 130.766 16.1174 130.378 16.338C129.973 16.5683 129.515 16.6891 129.05 16.6884C127.554 16.6884 126.342 15.469 126.342 13.963C126.342 12.457 127.554 11.2376 129.05 11.2376C129.333 11.2374 129.614 11.2819 129.883 11.3696L129.887 8.10144C129.07 7.9959 128.24 8.06083 127.449 8.29216C126.659 8.52348 125.924 8.91618 125.293 9.44546C124.74 9.92615 124.275 10.4997 123.919 11.1403C123.783 11.3739 123.272 12.3126 123.21 13.8361C123.171 14.7008 123.431 15.5967 123.555 15.967V15.9748C123.632 16.1928 123.934 16.9368 124.426 17.5641C124.822 18.0672 125.291 18.5092 125.816 18.8758V18.868L125.824 18.8758C127.378 19.9317 129.101 19.8624 129.101 19.8624C129.399 19.8503 130.398 19.8624 131.533 19.3247C132.791 18.7286 133.507 17.8405 133.507 17.8405C133.965 17.3099 134.329 16.7051 134.584 16.0523C134.874 15.2888 134.971 14.373 134.971 14.007V7.42243C135.01 7.44579 135.528 7.7888 135.528 7.7888C135.528 7.7888 136.276 8.26769 137.441 8.57956C138.278 8.80149 139.404 8.84821 139.404 8.84821V5.66181C139.01 5.70464 138.208 5.58005 137.387 5.17084Z" fill="#BFC9D9"/>
</svg>
