<svg width="59" height="166" viewBox="0 0 59 166" fill="none" xmlns="http://www.w3.org/2000/svg">
<path d="M-5.97688e-06 29.265C-5.68203e-06 36.0103 2.31019 42.2274 6.17689 47.1766C2.31019 52.1259 -4.70619e-06 58.3349 -4.41099e-06 65.0883C-4.11579e-06 71.8418 2.31019 78.0507 6.17689 83C2.31019 87.9493 -3.1403e-06 94.1582 -2.8451e-06 100.912C-2.5499e-06 107.665 2.31019 113.874 6.17689 118.823C2.31019 123.773 -1.57441e-06 129.982 -1.27921e-06 136.735C-5.72644e-07 152.899 13.2058 166 29.5 166C45.7942 166 59 152.899 59 136.735C59 129.982 56.6898 123.773 52.8231 118.823C56.6898 113.874 59 107.665 59 100.912C59 94.1582 56.6898 87.9493 52.8231 83C56.6898 78.0507 59 71.8418 59 65.0883C59 58.3349 56.6898 52.1259 52.8231 47.1766C56.6898 42.2274 59 36.0184 59 29.265C59 13.1006 45.7942 -2.00173e-06 29.5 -1.28949e-06C13.2058 -5.77243e-07 -6.68345e-06 13.1006 -5.97688e-06 29.265Z" fill="url(#paint0_linear_2834_7561)"/>
<defs>
<linearGradient id="paint0_linear_2834_7561" x1="28.9825" y1="171.217" x2="28.9824" y2="-5.36501" gradientUnits="userSpaceOnUse">
<stop offset="0.005" stop-color="#43D2FF"/>
<stop offset="0.415" stop-color="#43D2FF"/>
<stop offset="0.895" stop-color="#0057FF"/>
</linearGradient>
</defs>
</svg>
